STARTFONT 2.1
COMMENT
COMMENT Converted from OpenType font "chicago.ttf" by "otf2bdf 3.0".
COMMENT
FONT -FreeType-Chicago-Medium-R-Normal--17-120-100-100-P-89-ISO10646-1
SIZE 12 100 100
FONTBOUNDINGBOX 22 27 -1 -8
STARTPROPERTIES 19
FOUNDRY "FreeType"
FAMILY_NAME "Chicago"
WEIGHT_NAME "Medium"
SLANT "R"
SETWIDTH_NAME "Normal"
ADD_STYLE_NAME ""
PIXEL_SIZE 17
POINT_SIZE 120
RESOLUTION_X 100
RESOLUTION_Y 100
SPACING "P"
AVERAGE_WIDTH 89
CHARSET_REGISTRY "ISO10646"
CHARSET_ENCODING "1"
FONT_ASCENT 17
FONT_DESCENT 4
COPYRIGHT "© 199098 Apple Computer Inc. © 199097 Type Solutions Inc. © 199097 The Font Bureau Inc."
_OTF_FONTFILE "chicago.ttf"
_OTF_PSNAME "Chicago"
ENDPROPERTIES
CHARS 398
STARTCHAR 0020
ENCODING 32
SWIDTH 360 0
DWIDTH 6 0
BBX 0 0 0 0
BITMAP
ENDCHAR
STARTCHAR 0021
ENCODING 33
SWIDTH 480 0
DWIDTH 8 0
BBX 3 13 3 0
BITMAP
E0
E0
E0
E0
E0
E0
E0
E0
E0
00
00
E0
E0
ENDCHAR
STARTCHAR 0022
ENCODING 34
SWIDTH 600 0
DWIDTH 10 0
BBX 4 5 3 8
BITMAP
90
90
90
90
90
ENDCHAR
STARTCHAR 0023
ENCODING 35
SWIDTH 840 0
DWIDTH 14 0
BBX 12 12 1 1
BITMAP
0C40
0CC0
08C0
3FF0
1880
1980
1180
1100
FFC0
3100
3300
2200
ENDCHAR
STARTCHAR 0024
ENCODING 36
SWIDTH 600 0
DWIDTH 10 0
BBX 7 15 1 -1
BITMAP
18
3C
7E
DA
D8
F8
78
7C
3C
1E
1E
9E
5E
7C
18
ENDCHAR
STARTCHAR 0025
ENCODING 37
SWIDTH 900 0
DWIDTH 15 0
BBX 13 13 1 0
BITMAP
3BE0
4CC0
C480
C580
4D00
3B00
0200
0600
04F0
0C98
0998
1898
10F0
ENDCHAR
STARTCHAR 0026
ENCODING 38
SWIDTH 840 0
DWIDTH 14 0
BBX 12 13 1 0
BITMAP
3F00
7300
E380
E380
7030
3830
7820
63E0
E3C0
E380
E380
6300
3E00
ENDCHAR
STARTCHAR 0027
ENCODING 39
SWIDTH 240 0
DWIDTH 4 0
BBX 2 5 1 8
BITMAP
C0
C0
C0
C0
C0
ENDCHAR
STARTCHAR 0028
ENCODING 40
SWIDTH 420 0
DWIDTH 7 0
BBX 5 15 1 -1
BITMAP
18
70
60
60
E0
E0
E0
E0
E0
E0
E0
60
60
70
18
ENDCHAR
STARTCHAR 0029
ENCODING 41
SWIDTH 420 0
DWIDTH 7 0
BBX 5 15 1 -1
BITMAP
C0
70
30
30
38
38
38
38
38
38
38
30
30
70
C0
ENDCHAR
STARTCHAR 002A
ENCODING 42
SWIDTH 600 0
DWIDTH 10 0
BBX 6 7 2 5
BITMAP
30
30
FC
78
FC
B4
30
ENDCHAR
STARTCHAR 002B
ENCODING 43
SWIDTH 600 0
DWIDTH 10 0
BBX 7 7 1 1
BITMAP
18
18
18
FE
18
18
18
ENDCHAR
STARTCHAR 002C
ENCODING 44
SWIDTH 360 0
DWIDTH 6 0
BBX 3 6 1 -3
BITMAP
E0
E0
E0
20
E0
C0
ENDCHAR
STARTCHAR 002D
ENCODING 45
SWIDTH 600 0
DWIDTH 10 0
BBX 7 2 1 4
BITMAP
FE
FE
ENDCHAR
STARTCHAR 002E
ENCODING 46
SWIDTH 360 0
DWIDTH 6 0
BBX 3 3 1 0
BITMAP
E0
E0
E0
ENDCHAR
STARTCHAR 002F
ENCODING 47
SWIDTH 600 0
DWIDTH 10 0
BBX 6 14 2 0
BITMAP
04
0C
08
08
18
10
30
20
20
60
40
C0
80
80
ENDCHAR
STARTCHAR 0030
ENCODING 48
SWIDTH 660 0
DWIDTH 11 0
BBX 9 13 1 0
BITMAP
3F00
7700
E380
E380
E780
E780
EB80
FB80
F380
F380
E380
7300
3F00
ENDCHAR
STARTCHAR 0031
ENCODING 49
SWIDTH 660 0
DWIDTH 11 0
BBX 4 13 3 0
BITMAP
30
F0
F0
70
70
70
70
70
70
70
70
70
70
ENDCHAR
STARTCHAR 0032
ENCODING 50
SWIDTH 660 0
DWIDTH 11 0
BBX 9 13 1 0
BITMAP
3E00
4300
8380
0380
0380
0700
0E00
1C00
3800
3000
7000
E000
FF80
ENDCHAR
STARTCHAR 0033
ENCODING 51
SWIDTH 660 0
DWIDTH 11 0
BBX 9 13 1 0
BITMAP
FF80
0F80
0700
0C00
3800
3F00
0700
0380
0380
0380
C380
4380
7F00
ENDCHAR
STARTCHAR 0034
ENCODING 52
SWIDTH 660 0
DWIDTH 11 0
BBX 10 13 0 0
BITMAP
0700
0700
0B00
1B00
3300
2300
4300
C300
FFC0
0300
0300
0300
0300
ENDCHAR
STARTCHAR 0035
ENCODING 53
SWIDTH 660 0
DWIDTH 11 0
BBX 9 13 1 0
BITMAP
FF80
E000
E000
E000
E000
FF00
0300
0380
0380
0380
C380
4380
7F00
ENDCHAR
STARTCHAR 0036
ENCODING 54
SWIDTH 660 0
DWIDTH 11 0
BBX 9 13 1 0
BITMAP
1E00
3000
7000
6000
E000
FF00
F300
E380
E380
E380
E380
7300
3F00
ENDCHAR
STARTCHAR 0037
ENCODING 55
SWIDTH 660 0
DWIDTH 11 0
BBX 9 13 1 0
BITMAP
FF80
0380
0380
0780
0700
0700
0E00
0E00
1C00
1C00
1C00
1C00
1C00
ENDCHAR
STARTCHAR 0038
ENCODING 56
SWIDTH 660 0
DWIDTH 11 0
BBX 9 13 1 0
BITMAP
3F00
7300
E380
E380
E380
7300
1C00
6300
6380
E380
E380
7300
3E00
ENDCHAR
STARTCHAR 0039
ENCODING 57
SWIDTH 660 0
DWIDTH 11 0
BBX 9 13 1 0
BITMAP
3F00
7300
E380
E380
E380
E380
E380
7380
3F80
0380
0300
0600
3C00
ENDCHAR
STARTCHAR 003A
ENCODING 58
SWIDTH 360 0
DWIDTH 6 0
BBX 3 10 1 0
BITMAP
E0
E0
00
00
00
00
00
00
E0
E0
ENDCHAR
STARTCHAR 003B
ENCODING 59
SWIDTH 360 0
DWIDTH 6 0
BBX 3 13 1 -3
BITMAP
E0
E0
00
00
00
00
00
00
E0
E0
20
E0
C0
ENDCHAR
STARTCHAR 003C
ENCODING 60
SWIDTH 480 0
DWIDTH 8 0
BBX 6 10 1 1
BITMAP
0C
18
30
60
80
C0
60
30
18
0C
ENDCHAR
STARTCHAR 003D
ENCODING 61
SWIDTH 660 0
DWIDTH 11 0
BBX 9 4 1 3
BITMAP
FF80
0000
0000
FF80
ENDCHAR
STARTCHAR 003E
ENCODING 62
SWIDTH 480 0
DWIDTH 8 0
BBX 7 10 1 1
BITMAP
C0
60
30
1C
0E
0C
18
30
60
C0
ENDCHAR
STARTCHAR 003F
ENCODING 63
SWIDTH 660 0
DWIDTH 11 0
BBX 9 13 1 0
BITMAP
3F00
4300
8380
0380
0F00
0E00
1C00
1C00
1C00
0000
0000
1C00
1C00
ENDCHAR
STARTCHAR 0040
ENCODING 64
SWIDTH 900 0
DWIDTH 15 0
BBX 13 13 1 0
BITMAP
1FC0
3020
6010
4F98
D998
D998
D998
D998
D998
4EF8
6000
3000
1FC0
ENDCHAR
STARTCHAR 0041
ENCODING 65
SWIDTH 660 0
DWIDTH 11 0
BBX 9 13 1 0
BITMAP
3F00
7300
E380
E380
E380
E380
FF80
E380
E380
E380
E380
E380
E380
ENDCHAR
STARTCHAR 0042
ENCODING 66
SWIDTH 660 0
DWIDTH 11 0
BBX 9 13 1 0
BITMAP
FF00
E300
E380
E380
E380
E300
FC00
E300
E380
E380
E380
E300
FF00
ENDCHAR
STARTCHAR 0043
ENCODING 67
SWIDTH 660 0
DWIDTH 11 0
BBX 9 13 1 0
BITMAP
7F00
E100
E180
E000
E000
E000
E000
E000
E000
E000
E000
7180
3F00
ENDCHAR
STARTCHAR 0044
ENCODING 68
SWIDTH 660 0
DWIDTH 11 0
BBX 9 13 1 0
BITMAP
FF00
E300
E380
E380
E380
E380
E380
E380
E380
E380
E380
E300
FF00
ENDCHAR
STARTCHAR 0045
ENCODING 69
SWIDTH 600 0
DWIDTH 10 0
BBX 7 13 1 0
BITMAP
FE
E0
E0
E0
E0
E0
FC
E0
E0
E0
E0
E0
FE
ENDCHAR
STARTCHAR 0046
ENCODING 70
SWIDTH 600 0
DWIDTH 10 0
BBX 7 13 1 0
BITMAP
FE
E0
E0
E0
E0
E0
FC
E0
E0
E0
E0
E0
E0
ENDCHAR
STARTCHAR 0047
ENCODING 71
SWIDTH 660 0
DWIDTH 11 0
BBX 9 13 1 0
BITMAP
7F00
E100
E180
E000
E000
E000
E780
E380
E380
E380
E380
7300
3F00
ENDCHAR
STARTCHAR 0048
ENCODING 72
SWIDTH 660 0
DWIDTH 11 0
BBX 9 13 1 0
BITMAP
E380
E380
E380
E380
E380
E380
FF80
E380
E380
E380
E380
E380
E380
ENDCHAR
STARTCHAR 0049
ENCODING 73
SWIDTH 480 0
DWIDTH 8 0
BBX 3 13 3 0
BITMAP
E0
E0
E0
E0
E0
E0
E0
E0
E0
E0
E0
E0
E0
ENDCHAR
STARTCHAR 004A
ENCODING 74
SWIDTH 600 0
DWIDTH 10 0
BBX 8 13 0 0
BITMAP
03
03
03
03
03
03
03
E3
E3
E3
E3
E7
7E
ENDCHAR
STARTCHAR 004B
ENCODING 75
SWIDTH 780 0
DWIDTH 13 0
BBX 10 13 1 0
BITMAP
E1C0
E380
E300
E600
EC00
FC00
F800
F800
FC00
EE00
E700
E380
E1C0
ENDCHAR
STARTCHAR 004C
ENCODING 76
SWIDTH 600 0
DWIDTH 10 0
BBX 7 13 1 0
BITMAP
E0
E0
E0
E0
E0
E0
E0
E0
E0
E0
E0
E0
FE
ENDCHAR
STARTCHAR 004D
ENCODING 77
SWIDTH 1020 0
DWIDTH 17 0
BBX 14 13 1 0
BITMAP
800C
C01C
E01C
F03C
F87C
FCFC
DFDC
CF9C
C71C
C21C
C01C
C01C
C01C
ENDCHAR
STARTCHAR 004E
ENCODING 78
SWIDTH 780 0
DWIDTH 13 0
BBX 10 13 1 0
BITMAP
C040
E040
F040
F840
FC40
FE40
FF40
DFC0
CFC0
C3C0
C1C0
C0C0
C040
ENDCHAR
STARTCHAR 004F
ENCODING 79
SWIDTH 660 0
DWIDTH 11 0
BBX 9 13 1 0
BITMAP
3F00
7300
E380
E380
E380
E380
E380
E380
E380
E380
E380
7300
3F00
ENDCHAR
STARTCHAR 0050
ENCODING 80
SWIDTH 660 0
DWIDTH 11 0
BBX 9 13 1 0
BITMAP
FF00
E300
E380
E380
E380
E300
FF00
E000
E000
E000
E000
E000
E000
ENDCHAR
STARTCHAR 0051
ENCODING 81
SWIDTH 660 0
DWIDTH 11 0
BBX 9 14 1 -1
BITMAP
3F00
7300
E380
E380
E380
E380
E380
E380
E380
E380
E380
7300
3F00
0780
ENDCHAR
STARTCHAR 0052
ENCODING 82
SWIDTH 660 0
DWIDTH 11 0
BBX 9 13 1 0
BITMAP
FE00
E300
E380
E380
E380
E300
FE00
E380
E380
E380
E380
E380
E380
ENDCHAR
STARTCHAR 0053
ENCODING 83
SWIDTH 600 0
DWIDTH 10 0
BBX 7 13 1 0
BITMAP
3C
66
E2
E0
F0
78
3C
1C
1E
0E
C6
4E
7C
ENDCHAR
STARTCHAR 0054
ENCODING 84
SWIDTH 480 0
DWIDTH 8 0
BBX 8 13 0 0
BITMAP
FF
1C
1C
1C
1C
1C
1C
1C
1C
1C
1C
1C
1C
ENDCHAR
STARTCHAR 0055
ENCODING 85
SWIDTH 660 0
DWIDTH 11 0
BBX 9 13 1 0
BITMAP
E380
E380
E380
E380
E380
E380
E380
E380
E380
E380
E380
7300
3F00
ENDCHAR
STARTCHAR 0056
ENCODING 86
SWIDTH 660 0
DWIDTH 11 0
BBX 9 13 1 0
BITMAP
E380
E380
E380
E380
E380
E380
E380
E380
E380
E380
E300
E200
FC00
ENDCHAR
STARTCHAR 0057
ENCODING 87
SWIDTH 1020 0
DWIDTH 17 0
BBX 14 13 1 0
BITMAP
E39C
E39C
E39C
E39C
E39C
E39C
E39C
E39C
E39C
E39C
E39C
E398
FFF0
ENDCHAR
STARTCHAR 0058
ENCODING 88
SWIDTH 660 0
DWIDTH 11 0
BBX 9 13 1 0
BITMAP
E380
E380
E380
E380
E380
7300
1C00
7300
E380
E380
E380
E380
E380
ENDCHAR
STARTCHAR 0059
ENCODING 89
SWIDTH 660 0
DWIDTH 11 0
BBX 9 13 1 0
BITMAP
E380
E380
E380
E380
E380
6380
7F00
1C00
1C00
1C00
1C00
1C00
1C00
ENDCHAR
STARTCHAR 005A
ENCODING 90
SWIDTH 660 0
DWIDTH 11 0
BBX 9 13 1 0
BITMAP
FF80
0F00
0300
0600
0600
0C00
0C00
1800
1800
3000
3000
6000
7F80
ENDCHAR
STARTCHAR 005B
ENCODING 91
SWIDTH 420 0
DWIDTH 7 0
BBX 5 15 1 -1
BITMAP
F8
E0
E0
E0
E0
E0
E0
E0
E0
E0
E0
E0
E0
E0
F8
ENDCHAR
STARTCHAR 005C
ENCODING 92
SWIDTH 600 0
DWIDTH 10 0
BBX 6 14 2 0
BITMAP
80
80
C0
40
60
20
20
30
10
18
08
08
0C
04
ENDCHAR
STARTCHAR 005D
ENCODING 93
SWIDTH 420 0
DWIDTH 7 0
BBX 5 15 1 -1
BITMAP
F8
38
38
38
38
38
38
38
38
38
38
38
38
38
F8
ENDCHAR
STARTCHAR 005E
ENCODING 94
SWIDTH 660 0
DWIDTH 11 0
BBX 7 5 2 8
BITMAP
10
38
6C
44
82
ENDCHAR
STARTCHAR 005F
ENCODING 95
SWIDTH 660 0
DWIDTH 11 0
BBX 11 1 0 -1
BITMAP
FFE0
ENDCHAR
STARTCHAR 0060
ENCODING 96
SWIDTH 480 0
DWIDTH 8 0
BBX 2 3 3 11
BITMAP
80
C0
40
ENDCHAR
STARTCHAR 0061
ENCODING 97
SWIDTH 660 0
DWIDTH 11 0
BBX 9 10 1 0
BITMAP
3F00
4380
C380
0380
0380
3F80
6380
E380
7780
7F80
ENDCHAR
STARTCHAR 0062
ENCODING 98
SWIDTH 660 0
DWIDTH 11 0
BBX 9 13 1 0
BITMAP
E000
E000
E000
FF00
FF00
E380
E380
E380
E380
E380
E380
E300
FF00
ENDCHAR
STARTCHAR 0063
ENCODING 99
SWIDTH 600 0
DWIDTH 10 0
BBX 7 10 1 0
BITMAP
3E
72
E0
E0
E0
E0
E0
E2
E2
7C
ENDCHAR
STARTCHAR 0064
ENCODING 100
SWIDTH 660 0
DWIDTH 11 0
BBX 9 13 1 0
BITMAP
0380
0380
0380
3F80
7380
E380
E380
E380
E380
E380
E380
7780
3F80
ENDCHAR
STARTCHAR 0065
ENCODING 101
SWIDTH 660 0
DWIDTH 11 0
BBX 9 10 1 0
BITMAP
3E00
7700
E380
E380
E380
FF80
E000
E180
E100
7F00
ENDCHAR
STARTCHAR 0066
ENCODING 102
SWIDTH 480 0
DWIDTH 8 0
BBX 7 13 1 0
BITMAP
1E
38
38
FC
38
38
38
38
38
38
38
38
38
ENDCHAR
STARTCHAR 0067
ENCODING 103
SWIDTH 660 0
DWIDTH 11 0
BBX 9 14 1 -4
BITMAP
3F80
7380
E380
E380
E380
E380
E380
E380
7780
3F80
0380
C380
4380
7F00
ENDCHAR
STARTCHAR 0068
ENCODING 104
SWIDTH 660 0
DWIDTH 11 0
BBX 9 13 1 0
BITMAP
E000
E000
E000
FF00
FF00
E380
E380
E380
E380
E380
E380
E380
E380
ENDCHAR
STARTCHAR 0069
ENCODING 105
SWIDTH 360 0
DWIDTH 6 0
BBX 3 13 1 0
BITMAP
E0
00
00
E0
E0
E0
E0
E0
E0
E0
E0
E0
E0
ENDCHAR
STARTCHAR 006A
ENCODING 106
SWIDTH 480 0
DWIDTH 8 0
BBX 7 16 0 -3
BITMAP
0E
00
00
0E
0E
0E
0E
0E
0E
0E
0E
0E
0E
8E
CE
7C
ENDCHAR
STARTCHAR 006B
ENCODING 107
SWIDTH 660 0
DWIDTH 11 0
BBX 10 13 1 0
BITMAP
E000
E000
E000
E1C0
E300
E600
FC00
F800
F800
FC00
EE00
E300
E1C0
ENDCHAR
STARTCHAR 006C
ENCODING 108
SWIDTH 360 0
DWIDTH 6 0
BBX 3 13 1 0
BITMAP
E0
E0
E0
E0
E0
E0
E0
E0
E0
E0
E0
E0
E0
ENDCHAR
STARTCHAR 006D
ENCODING 109
SWIDTH 1020 0
DWIDTH 17 0
BBX 14 10 1 0
BITMAP
EE78
F39C
E39C
E39C
E39C
E39C
E39C
E39C
E39C
E39C
ENDCHAR
STARTCHAR 006E
ENCODING 110
SWIDTH 660 0
DWIDTH 11 0
BBX 9 10 1 0
BITMAP
FF00
FF00
E380
E380
E380
E380
E380
E380
E380
E380
ENDCHAR
STARTCHAR 006F
ENCODING 111
SWIDTH 660 0
DWIDTH 11 0
BBX 9 10 1 0
BITMAP
3F00
7300
E380
E380
E380
E380
E380
E380
7300
3F00
ENDCHAR
STARTCHAR 0070
ENCODING 112
SWIDTH 660 0
DWIDTH 11 0
BBX 9 13 1 -3
BITMAP
FF00
F300
E380
E380
E380
E380
E380
E380
E300
FF00
E000
E000
E000
ENDCHAR
STARTCHAR 0071
ENCODING 113
SWIDTH 660 0
DWIDTH 11 0
BBX 9 13 1 -3
BITMAP
3F80
7380
E380
E380
E380
E380
E380
E380
7380
3F80
0380
0380
0380
ENDCHAR
STARTCHAR 0072
ENCODING 114
SWIDTH 480 0
DWIDTH 8 0
BBX 7 10 1 0
BITMAP
EE
FE
FC
F0
E0
E0
E0
E0
E0
E0
ENDCHAR
STARTCHAR 0073
ENCODING 115
SWIDTH 600 0
DWIDTH 10 0
BBX 7 10 1 0
BITMAP
3E
62
E0
F0
7C
3E
1E
0E
CE
7C
ENDCHAR
STARTCHAR 0074
ENCODING 116
SWIDTH 480 0
DWIDTH 8 0
BBX 6 13 1 0
BITMAP
38
38
38
FC
38
38
38
38
38
38
38
38
1C
ENDCHAR
STARTCHAR 0075
ENCODING 117
SWIDTH 660 0
DWIDTH 11 0
BBX 9 10 1 0
BITMAP
E380
E380
E380
E380
E380
E380
E380
E380
7780
3F80
ENDCHAR
STARTCHAR 0076
ENCODING 118
SWIDTH 660 0
DWIDTH 11 0
BBX 9 10 1 0
BITMAP
E380
E380
E380
E380
E380
E380
E380
E300
E200
FC00
ENDCHAR
STARTCHAR 0077
ENCODING 119
SWIDTH 1020 0
DWIDTH 17 0
BBX 14 10 1 0
BITMAP
E39C
E39C
E39C
E39C
E39C
E39C
E39C
E39C
E398
FFF0
ENDCHAR
STARTCHAR 0078
ENCODING 120
SWIDTH 660 0
DWIDTH 11 0
BBX 9 10 1 0
BITMAP
E380
E380
E380
6300
3300
3F00
6300
E380
E380
E380
ENDCHAR
STARTCHAR 0079
ENCODING 121
SWIDTH 660 0
DWIDTH 11 0
BBX 9 14 1 -4
BITMAP
E380
E380
E380
E380
E380
E380
E380
E380
7780
3F80
0380
0380
4300
7F00
ENDCHAR
STARTCHAR 007A
ENCODING 122
SWIDTH 660 0
DWIDTH 11 0
BBX 9 10 1 0
BITMAP
FF80
0780
0700
0F00
0E00
1C00
3800
7000
F000
FF80
ENDCHAR
STARTCHAR 007B
ENCODING 123
SWIDTH 420 0
DWIDTH 7 0
BBX 5 15 1 -1
BITMAP
18
30
20
20
20
20
20
C0
20
20
20
20
20
30
18
ENDCHAR
STARTCHAR 007C
ENCODING 124
SWIDTH 420 0
DWIDTH 7 0
BBX 1 15 3 -1
BITMAP
80
80
80
80
80
80
80
80
80
80
80
80
80
80
80
ENDCHAR
STARTCHAR 007D
ENCODING 125
SWIDTH 420 0
DWIDTH 7 0
BBX 5 15 1 -1
BITMAP
C0
60
20
20
20
20
20
18
20
20
20
20
20
60
C0
ENDCHAR
STARTCHAR 007E
ENCODING 126
SWIDTH 660 0
DWIDTH 11 0
BBX 9 3 1 7
BITMAP
3980
7F00
C700
ENDCHAR
STARTCHAR 00A0
ENCODING 160
SWIDTH 660 0
DWIDTH 11 0
BBX 0 0 0 0
BITMAP
ENDCHAR
STARTCHAR 00A1
ENCODING 161
SWIDTH 480 0
DWIDTH 8 0
BBX 3 13 3 0
BITMAP
E0
E0
00
00
00
E0
E0
E0
E0
E0
E0
E0
E0
ENDCHAR
STARTCHAR 00A2
ENCODING 162
SWIDTH 600 0
DWIDTH 10 0
BBX 7 11 1 3
BITMAP
18
7C
FE
DA
D8
D8
D8
5A
7E
1C
18
ENDCHAR
STARTCHAR 00A3
ENCODING 163
SWIDTH 780 0
DWIDTH 13 0
BBX 10 13 1 0
BITMAP
1F00
3900
3980
3800
3800
3800
FC00
3800
3800
3800
3800
3840
FF80
ENDCHAR
STARTCHAR 00A4
ENCODING 164
SWIDTH 660 0
DWIDTH 11 0
BBX 8 8 2 3
BITMAP
82
DE
6C
44
44
6C
FE
83
ENDCHAR
STARTCHAR 00A5
ENCODING 165
SWIDTH 660 0
DWIDTH 11 0
BBX 9 13 1 0
BITMAP
E380
E380
E380
E380
7700
3F00
FF80
1C00
1C00
FF80
1C00
1C00
1C00
ENDCHAR
STARTCHAR 00A6
ENCODING 166
SWIDTH 420 0
DWIDTH 7 0
BBX 1 15 3 -1
BITMAP
80
80
80
80
80
80
80
00
80
80
80
80
80
80
80
ENDCHAR
STARTCHAR 00A7
ENCODING 167
SWIDTH 600 0
DWIDTH 10 0
BBX 7 17 1 -4
BITMAP
3C
46
C2
C0
40
70
58
CC
46
62
32
1E
0C
06
02
C2
7C
ENDCHAR
STARTCHAR 00A8
ENCODING 168
SWIDTH 480 0
DWIDTH 8 0
BBX 6 2 1 11
BITMAP
CC
CC
ENDCHAR
STARTCHAR 00A9
ENCODING 169
SWIDTH 840 0
DWIDTH 14 0
BBX 12 13 1 0
BITMAP
1F80
6060
4020
CF20
CFB0
D830
D830
D9B0
D9B0
CF20
4020
6060
1F80
ENDCHAR
STARTCHAR 00AA
ENCODING 170
SWIDTH 600 0
DWIDTH 10 0
BBX 7 12 1 1
BITMAP
7E
46
C6
06
7E
66
E6
66
7E
00
00
FE
ENDCHAR
STARTCHAR 00AB
ENCODING 171
SWIDTH 780 0
DWIDTH 13 0
BBX 8 9 2 1
BITMAP
11
23
46
8C
88
44
22
11
11
ENDCHAR
STARTCHAR 00AC
ENCODING 172
SWIDTH 600 0
DWIDTH 10 0
BBX 7 5 1 1
BITMAP
FE
02
02
02
02
ENDCHAR
STARTCHAR 00AD
ENCODING 173
SWIDTH 660 0
DWIDTH 11 0
BBX 9 2 1 4
BITMAP
FF80
FF80
ENDCHAR
STARTCHAR 00AE
ENCODING 174
SWIDTH 840 0
DWIDTH 14 0
BBX 12 13 1 0
BITMAP
1F80
6060
4020
DFA0
DBB0
D9B0
DF30
D9B0
D9B0
D9A0
4020
6040
1F80
ENDCHAR
STARTCHAR 00AF
ENCODING 175
SWIDTH 480 0
DWIDTH 8 0
BBX 6 2 1 11
BITMAP
FC
FC
ENDCHAR
STARTCHAR 00B0
ENCODING 176
SWIDTH 480 0
DWIDTH 8 0
BBX 6 6 1 7
BITMAP
38
4C
C4
C4
4C
38
ENDCHAR
STARTCHAR 00B1
ENCODING 177
SWIDTH 600 0
DWIDTH 10 0
BBX 7 10 1 0
BITMAP
18
18
18
FE
18
18
18
00
00
FE
ENDCHAR
STARTCHAR 00B2
ENCODING 178
SWIDTH 600 0
DWIDTH 10 0
BBX 7 10 1 3
BITMAP
7C
46
C6
06
0E
1C
38
70
60
FE
ENDCHAR
STARTCHAR 00B3
ENCODING 179
SWIDTH 600 0
DWIDTH 10 0
BBX 7 10 1 3
BITMAP
FE
1E
0C
18
3E
06
06
06
C6
7E
ENDCHAR
STARTCHAR 00B4
ENCODING 180
SWIDTH 480 0
DWIDTH 8 0
BBX 2 3 3 11
BITMAP
40
C0
80
ENDCHAR
STARTCHAR 00B5
ENCODING 181
SWIDTH 840 0
DWIDTH 14 0
BBX 10 13 2 -3
BITMAP
39C0
39C0
31C0
71C0
7180
7180
7380
6380
F3C0
FFC0
E000
E000
C000
ENDCHAR
STARTCHAR 00B6
ENCODING 182
SWIDTH 780 0
DWIDTH 13 0
BBX 10 13 1 0
BITMAP
7FC0
E240
E240
E240
E240
E240
7E40
0240
0240
0240
0240
0240
0240
ENDCHAR
STARTCHAR 00B7
ENCODING 183
SWIDTH 360 0
DWIDTH 6 0
BBX 3 3 1 4
BITMAP
E0
E0
E0
ENDCHAR
STARTCHAR 00B8
ENCODING 184
SWIDTH 480 0
DWIDTH 8 0
BBX 3 4 3 -4
BITMAP
C0
60
60
C0
ENDCHAR
STARTCHAR 00B9
ENCODING 185
SWIDTH 600 0
DWIDTH 10 0
BBX 3 10 3 3
BITMAP
60
E0
E0
60
60
60
60
60
60
60
ENDCHAR
STARTCHAR 00BA
ENCODING 186
SWIDTH 600 0
DWIDTH 10 0
BBX 7 12 1 1
BITMAP
7C
66
E6
E6
E6
E6
E6
66
7C
00
00
FE
ENDCHAR
STARTCHAR 00BB
ENCODING 187
SWIDTH 780 0
DWIDTH 13 0
BBX 9 10 2 0
BITMAP
0800
8C00
4600
2300
1180
1980
3300
6600
CC00
8800
ENDCHAR
STARTCHAR 00BC
ENCODING 188
SWIDTH 1140 0
DWIDTH 19 0
BBX 17 13 1 0
BITMAP
304000
70C000
F08000
308700
318F00
311F00
311700
333700
326700
327F80
060700
040700
040700
ENDCHAR
STARTCHAR 00BD
ENCODING 189
SWIDTH 1140 0
DWIDTH 19 0
BBX 17 13 1 0
BITMAP
304000
70C000
F08000
309F00
31B180
312180
310380
330300
320600
320C00
061800
043800
043F80
ENDCHAR
STARTCHAR 00BE
ENCODING 190
SWIDTH 1320 0
DWIDTH 22 0
BBX 20 13 1 0
BITMAP
FE1800
1E1000
0C1000
1830C0
3E21C0
0623C0
0666C0
0644C0
C64CC0
7EDFF0
00C0C0
0080C0
0080C0
ENDCHAR
STARTCHAR 00BF
ENCODING 191
SWIDTH 660 0
DWIDTH 11 0
BBX 9 13 1 0
BITMAP
1C00
1C00
0000
0000
0000
1C00
1C00
3C00
7800
F000
E000
7180
3F00
ENDCHAR
STARTCHAR 00C0
ENCODING 192
SWIDTH 660 0
DWIDTH 11 0
BBX 9 17 1 0
BITMAP
1800
0800
0C00
0000
3F00
7300
E380
E380
E380
E380
FF80
E380
E380
E380
E380
E380
E380
ENDCHAR
STARTCHAR 00C1
ENCODING 193
SWIDTH 660 0
DWIDTH 11 0
BBX 9 17 1 0
BITMAP
0C00
0800
1800
0000
3F00
7300
E380
E380
E380
E380
FF80
E380
E380
E380
E380
E380
E380
ENDCHAR
STARTCHAR 00C2
ENCODING 194
SWIDTH 660 0
DWIDTH 11 0
BBX 9 17 1 0
BITMAP
0C00
1C00
3600
0000
3F00
7300
E380
E380
E380
E380
FF80
E380
E380
E380
E380
E380
E380
ENDCHAR
STARTCHAR 00C3
ENCODING 195
SWIDTH 660 0
DWIDTH 11 0
BBX 9 17 1 0
BITMAP
3980
7F00
C700
0000
3F00
7300
E380
E380
E380
E380
FF80
E380
E380
E380
E380
E380
E380
ENDCHAR
STARTCHAR 00C4
ENCODING 196
SWIDTH 660 0
DWIDTH 11 0
BBX 9 16 1 0
BITMAP
2200
2200
0000
3F00
7300
E380
E380
E380
E380
FF80
E380
E380
E380
E380
E380
E380
ENDCHAR
STARTCHAR 00C5
ENCODING 197
SWIDTH 660 0
DWIDTH 11 0
BBX 9 17 1 0
BITMAP
1C00
3200
2200
3200
3E00
7300
E380
E380
E380
E380
FF80
E380
E380
E380
E380
E380
E380
ENDCHAR
STARTCHAR 00C6
ENCODING 198
SWIDTH 900 0
DWIDTH 15 0
BBX 13 13 1 0
BITMAP
3FF8
7380
E380
E380
E380
E380
FFF0
E380
E380
E380
E380
E380
E3F8
ENDCHAR
STARTCHAR 00C7
ENCODING 199
SWIDTH 660 0
DWIDTH 11 0
BBX 9 17 1 -4
BITMAP
7F00
E100
E180
E000
E000
E000
E000
E000
E000
E000
E180
E100
7F00
0C00
0600
0600
0C00
ENDCHAR
STARTCHAR 00C8
ENCODING 200
SWIDTH 600 0
DWIDTH 10 0
BBX 7 17 1 0
BITMAP
20
30
10
00
FE
E0
E0
E0
E0
E0
FC
E0
E0
E0
E0
E0
FE
ENDCHAR
STARTCHAR 00C9
ENCODING 201
SWIDTH 600 0
DWIDTH 10 0
BBX 7 17 1 0
BITMAP
0C
08
18
00
FE
E0
E0
E0
E0
E0
FC
E0
E0
E0
E0
E0
FE
ENDCHAR
STARTCHAR 00CA
ENCODING 202
SWIDTH 600 0
DWIDTH 10 0
BBX 7 17 1 0
BITMAP
18
38
6C
00
FE
E0
E0
E0
E0
E0
FC
E0
E0
E0
E0
E0
FE
ENDCHAR
STARTCHAR 00CB
ENCODING 203
SWIDTH 600 0
DWIDTH 10 0
BBX 7 16 1 0
BITMAP
66
66
00
FE
E0
E0
E0
E0
E0
FC
E0
E0
E0
E0
E0
FE
ENDCHAR
STARTCHAR 00CC
ENCODING 204
SWIDTH 480 0
DWIDTH 8 0
BBX 3 17 3 0
BITMAP
80
C0
40
00
E0
E0
E0
E0
E0
E0
E0
E0
E0
E0
E0
E0
E0
ENDCHAR
STARTCHAR 00CD
ENCODING 205
SWIDTH 480 0
DWIDTH 8 0
BBX 3 17 3 0
BITMAP
40
C0
80
00
E0
E0
E0
E0
E0
E0
E0
E0
E0
E0
E0
E0
E0
ENDCHAR
STARTCHAR 00CE
ENCODING 206
SWIDTH 480 0
DWIDTH 8 0
BBX 5 17 2 0
BITMAP
60
F0
98
00
70
70
70
70
70
70
70
70
70
70
70
70
70
ENDCHAR
STARTCHAR 00CF
ENCODING 207
SWIDTH 480 0
DWIDTH 8 0
BBX 6 16 1 0
BITMAP
CC
CC
00
38
38
38
38
38
38
38
38
38
38
38
38
38
ENDCHAR
STARTCHAR 00D0
ENCODING 208
SWIDTH 660 0
DWIDTH 11 0
BBX 10 13 0 0
BITMAP
7F80
7180
71C0
71C0
71C0
71C0
FDC0
71C0
71C0
71C0
71C0
7180
7F80
ENDCHAR
STARTCHAR 00D1
ENCODING 209
SWIDTH 780 0
DWIDTH 13 0
BBX 10 17 1 0
BITMAP
3880
7F80
6700
0000
C040
E040
F040
F840
FC40
FE40
FF40
DFC0
CFC0
C3C0
C1C0
C0C0
C040
ENDCHAR
STARTCHAR 00D2
ENCODING 210
SWIDTH 660 0
DWIDTH 11 0
BBX 9 17 1 0
BITMAP
1800
0800
0C00
0000
3F00
7300
E380
E380
E380
E380
E380
E380
E380
E380
E380
7300
3F00
ENDCHAR
STARTCHAR 00D3
ENCODING 211
SWIDTH 660 0
DWIDTH 11 0
BBX 9 17 1 0
BITMAP
0C00
0800
1800
0000
3F00
7300
E380
E380
E380
E380
E380
E380
E380
E380
E380
7300
3F00
ENDCHAR
STARTCHAR 00D4
ENCODING 212
SWIDTH 660 0
DWIDTH 11 0
BBX 9 17 1 0
BITMAP
0C00
1C00
3600
0000
3F00
7300
E380
E380
E380
E380
E380
E380
E380
E380
E380
7300
3F00
ENDCHAR
STARTCHAR 00D5
ENCODING 213
SWIDTH 660 0
DWIDTH 11 0
BBX 9 17 1 0
BITMAP
3980
7F00
C700
0000
3F00
7300
E380
E380
E380
E380
E380
E380
E380
E380
E380
7300
3F00
ENDCHAR
STARTCHAR 00D6
ENCODING 214
SWIDTH 660 0
DWIDTH 11 0
BBX 9 16 1 0
BITMAP
2200
2200
0000
3F00
7300
E380
E380
E380
E380
E380
E380
E380
E380
E380
7300
3F00
ENDCHAR
STARTCHAR 00D7
ENCODING 215
SWIDTH 660 0
DWIDTH 11 0
BBX 8 8 2 1
BITMAP
82
C6
6C
38
38
6C
C6
83
ENDCHAR
STARTCHAR 00D8
ENCODING 216
SWIDTH 660 0
DWIDTH 11 0
BBX 9 13 1 0
BITMAP
3F80
7700
E380
E380
E780
EF80
EB80
FB80
F380
F380
E380
7300
7F00
ENDCHAR
STARTCHAR 00D9
ENCODING 217
SWIDTH 660 0
DWIDTH 11 0
BBX 9 17 1 0
BITMAP
1800
0800
0C00
0000
E380
E380
E380
E380
E380
E380
E380
E380
E380
E380
E380
7300
3F00
ENDCHAR
STARTCHAR 00DA
ENCODING 218
SWIDTH 660 0
DWIDTH 11 0
BBX 9 17 1 0
BITMAP
0C00
0800
1800
0000
E380
E380
E380
E380
E380
E380
E380
E380
E380
E380
E380
7300
3F00
ENDCHAR
STARTCHAR 00DB
ENCODING 219
SWIDTH 660 0
DWIDTH 11 0
BBX 9 17 1 0
BITMAP
0C00
1C00
3600
0000
E380
E380
E380
E380
E380
E380
E380
E380
E380
E380
E380
7300
3F00
ENDCHAR
STARTCHAR 00DC
ENCODING 220
SWIDTH 660 0
DWIDTH 11 0
BBX 9 16 1 0
BITMAP
2200
2200
0000
E380
E380
E380
E380
E380
E380
E380
E380
E380
E380
E380
7300
3F00
ENDCHAR
STARTCHAR 00DD
ENCODING 221
SWIDTH 660 0
DWIDTH 11 0
BBX 9 17 1 0
BITMAP
0C00
0800
1800
0000
E380
E380
E380
E380
E380
6380
7F00
1C00
1C00
1C00
1C00
1C00
1C00
ENDCHAR
STARTCHAR 00DE
ENCODING 222
SWIDTH 660 0
DWIDTH 11 0
BBX 9 13 1 0
BITMAP
E000
E000
E000
FF00
E300
E380
E380
E380
E300
FF00
E000
E000
E000
ENDCHAR
STARTCHAR 00DF
ENCODING 223
SWIDTH 660 0
DWIDTH 11 0
BBX 9 13 1 0
BITMAP
3F00
7300
E380
E380
E300
E600
E700
E380
E380
E380
E380
E700
E600
ENDCHAR
STARTCHAR 00E0
ENCODING 224
SWIDTH 660 0
DWIDTH 11 0
BBX 9 14 1 0
BITMAP
1800
0800
0C00
0000
3F00
4380
C380
0380
0380
3F80
6380
E380
7780
7F80
ENDCHAR
STARTCHAR 00E1
ENCODING 225
SWIDTH 660 0
DWIDTH 11 0
BBX 9 14 1 0
BITMAP
0C00
0800
1800
0000
3F00
4380
C380
0380
0380
3F80
6380
E380
7780
7F80
ENDCHAR
STARTCHAR 00E2
ENCODING 226
SWIDTH 660 0
DWIDTH 11 0
BBX 9 14 1 0
BITMAP
0C00
1C00
3600
0000
3F00
4380
C380
0380
0380
3F80
6380
E380
7780
7F80
ENDCHAR
STARTCHAR 00E3
ENCODING 227
SWIDTH 660 0
DWIDTH 11 0
BBX 9 14 1 0
BITMAP
3980
7F00
C700
0000
3F00
4380
C380
0380
0380
3F80
6380
E380
7780
7F80
ENDCHAR
STARTCHAR 00E4
ENCODING 228
SWIDTH 660 0
DWIDTH 11 0
BBX 9 13 1 0
BITMAP
2200
2200
0000
3F00
4380
C380
0380
0380
3F80
6380
E380
7780
7F80
ENDCHAR
STARTCHAR 00E5
ENCODING 229
SWIDTH 660 0
DWIDTH 11 0
BBX 9 17 1 0
BITMAP
1C00
3200
2200
3200
3E00
1C00
0000
3F00
4380
C380
0380
0380
3F80
6380
E380
7780
7F80
ENDCHAR
STARTCHAR 00E6
ENCODING 230
SWIDTH 1020 0
DWIDTH 17 0
BBX 14 10 1 0
BITMAP
3EF8
439C
C39C
039C
3FFC
7380
6380
E384
E384
7FF8
ENDCHAR
STARTCHAR 00E7
ENCODING 231
SWIDTH 600 0
DWIDTH 10 0
BBX 7 14 1 -4
BITMAP
7C
E2
E2
E0
E0
E0
E0
E2
E2
7C
18
0C
04
18
ENDCHAR
STARTCHAR 00E8
ENCODING 232
SWIDTH 660 0
DWIDTH 11 0
BBX 9 14 1 0
BITMAP
1800
0800
0C00
0000
3E00
7700
E380
E380
E380
FF80
E000
E180
E100
7F00
ENDCHAR
STARTCHAR 00E9
ENCODING 233
SWIDTH 660 0
DWIDTH 11 0
BBX 9 14 1 0
BITMAP
0C00
0800
1800
0000
3E00
7700
E380
E380
E380
FF80
E000
E180
E100
7F00
ENDCHAR
STARTCHAR 00EA
ENCODING 234
SWIDTH 660 0
DWIDTH 11 0
BBX 9 14 1 0
BITMAP
0C00
1C00
3600
0000
3E00
7700
E380
E380
E380
FF80
E000
E180
E100
7F00
ENDCHAR
STARTCHAR 00EB
ENCODING 235
SWIDTH 660 0
DWIDTH 11 0
BBX 9 13 1 0
BITMAP
2200
2200
0000
3E00
7700
E380
E380
E380
FF80
E000
E180
E100
7F00
ENDCHAR
STARTCHAR 00EC
ENCODING 236
SWIDTH 360 0
DWIDTH 6 0
BBX 3 14 1 0
BITMAP
40
40
20
00
E0
E0
E0
E0
E0
E0
E0
E0
E0
E0
ENDCHAR
STARTCHAR 00ED
ENCODING 237
SWIDTH 360 0
DWIDTH 6 0
BBX 3 14 1 0
BITMAP
20
40
40
00
E0
E0
E0
E0
E0
E0
E0
E0
E0
E0
ENDCHAR
STARTCHAR 00EE
ENCODING 238
SWIDTH 360 0
DWIDTH 6 0
BBX 5 14 0 0
BITMAP
30
78
C8
00
70
70
70
70
70
70
70
70
70
70
ENDCHAR
STARTCHAR 00EF
ENCODING 239
SWIDTH 360 0
DWIDTH 6 0
BBX 6 13 0 0
BITMAP
CC
CC
00
70
70
70
70
70
70
70
70
70
70
ENDCHAR
STARTCHAR 00F0
ENCODING 240
SWIDTH 660 0
DWIDTH 11 0
BBX 9 13 1 0
BITMAP
3A00
1600
1300
0300
0380
3F80
7380
E380
E380
E380
E380
7300
3E00
ENDCHAR
STARTCHAR 00F1
ENCODING 241
SWIDTH 660 0
DWIDTH 11 0
BBX 9 14 1 0
BITMAP
3980
7F00
C700
0000
FF00
FF00
E380
E380
E380
E380
E380
E380
E380
E380
ENDCHAR
STARTCHAR 00F2
ENCODING 242
SWIDTH 660 0
DWIDTH 11 0
BBX 9 14 1 0
BITMAP
1800
0800
0C00
0000
3F00
7300
E380
E380
E380
E380
E380
E380
7300
3F00
ENDCHAR
STARTCHAR 00F3
ENCODING 243
SWIDTH 660 0
DWIDTH 11 0
BBX 9 14 1 0
BITMAP
0C00
0800
1800
0000
3F00
7300
E380
E380
E380
E380
E380
E380
7300
3F00
ENDCHAR
STARTCHAR 00F4
ENCODING 244
SWIDTH 660 0
DWIDTH 11 0
BBX 9 14 1 0
BITMAP
0C00
1C00
3600
0000
3F00
7300
E380
E380
E380
E380
E380
E380
7300
3F00
ENDCHAR
STARTCHAR 00F5
ENCODING 245
SWIDTH 660 0
DWIDTH 11 0
BBX 9 14 1 0
BITMAP
3980
7F00
C700
0000
3F00
7300
E380
E380
E380
E380
E380
E380
7300
3F00
ENDCHAR
STARTCHAR 00F6
ENCODING 246
SWIDTH 660 0
DWIDTH 11 0
BBX 9 13 1 0
BITMAP
2200
2200
0000
3F00
7300
E380
E380
E380
E380
E380
E380
7300
3F00
ENDCHAR
STARTCHAR 00F7
ENCODING 247
SWIDTH 600 0
DWIDTH 10 0
BBX 7 7 1 1
BITMAP
18
00
00
FE
00
00
18
ENDCHAR
STARTCHAR 00F8
ENCODING 248
SWIDTH 660 0
DWIDTH 11 0
BBX 9 10 1 0
BITMAP
3F00
7700
E380
E780
E780
EB80
F380
F380
7300
7F00
ENDCHAR
STARTCHAR 00F9
ENCODING 249
SWIDTH 660 0
DWIDTH 11 0
BBX 9 14 1 0
BITMAP
1800
0800
0C00
0000
E380
E380
E380
E380
E380
E380
E380
E380
7780
3F80
ENDCHAR
STARTCHAR 00FA
ENCODING 250
SWIDTH 660 0
DWIDTH 11 0
BBX 9 14 1 0
BITMAP
0400
0C00
0800
0000
E380
E380
E380
E380
E380
E380
E380
E380
7780
3F80
ENDCHAR
STARTCHAR 00FB
ENCODING 251
SWIDTH 660 0
DWIDTH 11 0
BBX 9 14 1 0
BITMAP
0C00
1C00
3600
0000
E380
E380
E380
E380
E380
E380
E380
E380
7780
3F80
ENDCHAR
STARTCHAR 00FC
ENCODING 252
SWIDTH 660 0
DWIDTH 11 0
BBX 9 13 1 0
BITMAP
2200
2200
0000
E380
E380
E380
E380
E380
E380
E380
E380
7780
3F80
ENDCHAR
STARTCHAR 00FD
ENCODING 253
SWIDTH 660 0
DWIDTH 11 0
BBX 9 18 1 -4
BITMAP
0C00
0800
1800
0000
E380
E380
E380
E380
E380
E380
E380
E380
7780
3F80
0380
0380
4300
7F00
ENDCHAR
STARTCHAR 00FE
ENCODING 254
SWIDTH 660 0
DWIDTH 11 0
BBX 9 16 1 -3
BITMAP
E000
E000
E000
FF00
FF00
E380
E380
E380
E380
E380
E380
E300
FF00
E000
E000
E000
ENDCHAR
STARTCHAR 00FF
ENCODING 255
SWIDTH 660 0
DWIDTH 11 0
BBX 9 17 1 -4
BITMAP
2200
2200
0000
E380
E380
E380
E380
E380
E380
E380
E380
7780
3F80
0380
0380
4300
7F00
ENDCHAR
STARTCHAR 0100
ENCODING 256
SWIDTH 660 0
DWIDTH 11 0
BBX 9 15 1 0
BITMAP
3E00
3E00
3F00
7300
E380
E380
E380
E380
FF80
E380
E380
E380
E380
E380
E380
ENDCHAR
STARTCHAR 0101
ENCODING 257
SWIDTH 660 0
DWIDTH 11 0
BBX 9 12 1 0
BITMAP
3E00
3E00
3F00
4380
C380
0380
0380
3F80
6380
E380
7780
7F80
ENDCHAR
STARTCHAR 0102
ENCODING 258
SWIDTH 660 0
DWIDTH 11 0
BBX 9 16 1 0
BITMAP
2200
3E00
1C00
3F00
7300
E380
E380
E380
E380
FF80
E380
E380
E380
E380
E380
E380
ENDCHAR
STARTCHAR 0103
ENCODING 259
SWIDTH 660 0
DWIDTH 11 0
BBX 9 13 1 0
BITMAP
2200
3E00
1C00
3F00
4380
C380
0380
0380
3F80
6380
E380
7780
7F80
ENDCHAR
STARTCHAR 0104
ENCODING 260
SWIDTH 660 0
DWIDTH 11 0
BBX 9 17 1 -4
BITMAP
3F00
7300
E380
E380
E380
E380
FF80
E380
E380
E380
E380
E380
E380
0180
0200
0200
0180
ENDCHAR
STARTCHAR 0105
ENCODING 261
SWIDTH 660 0
DWIDTH 11 0
BBX 9 14 1 -4
BITMAP
3F00
4380
C380
0380
0380
3F80
6380
E380
7780
7F80
0180
0200
0200
0180
ENDCHAR
STARTCHAR 0106
ENCODING 262
SWIDTH 660 0
DWIDTH 11 0
BBX 9 17 1 0
BITMAP
0C00
0800
1800
0000
7F00
E100
E180
E000
E000
E000
E000
E000
E000
E000
E000
7180
3F00
ENDCHAR
STARTCHAR 0107
ENCODING 263
SWIDTH 600 0
DWIDTH 10 0
BBX 7 14 1 0
BITMAP
0C
08
18
00
3E
72
E0
E0
E0
E0
E0
E2
E2
7C
ENDCHAR
STARTCHAR 0108
ENCODING 264
SWIDTH 660 0
DWIDTH 11 0
BBX 9 16 1 0
BITMAP
0C00
1C00
3600
7F00
E100
E180
E000
E000
E000
E000
E000
E000
E000
E000
7180
3F00
ENDCHAR
STARTCHAR 0109
ENCODING 265
SWIDTH 600 0
DWIDTH 10 0
BBX 7 13 1 0
BITMAP
18
3C
64
3E
72
E0
E0
E0
E0
E0
E2
E2
7C
ENDCHAR
STARTCHAR 010A
ENCODING 266
SWIDTH 660 0
DWIDTH 11 0
BBX 9 15 1 0
BITMAP
0800
0800
7F00
E100
E180
E000
E000
E000
E000
E000
E000
E000
E000
7180
3F00
ENDCHAR
STARTCHAR 010B
ENCODING 267
SWIDTH 600 0
DWIDTH 10 0
BBX 7 12 1 0
BITMAP
18
18
3E
72
E0
E0
E0
E0
E0
E2
E2
7C
ENDCHAR
STARTCHAR 010C
ENCODING 268
SWIDTH 660 0
DWIDTH 11 0
BBX 9 17 1 0
BITMAP
3600
1C00
0C00
0000
7F00
E100
E180
E000
E000
E000
E000
E000
E000
E000
E000
7180
3F00
ENDCHAR
STARTCHAR 010D
ENCODING 269
SWIDTH 600 0
DWIDTH 10 0
BBX 7 14 1 0
BITMAP
64
3C
18
00
3E
72
E0
E0
E0
E0
E0
E2
E2
7C
ENDCHAR
STARTCHAR 010E
ENCODING 270
SWIDTH 660 0
DWIDTH 11 0
BBX 9 16 1 0
BITMAP
3600
1C00
0C00
FF00
E300
E380
E380
E380
E380
E380
E380
E380
E380
E380
E300
FF00
ENDCHAR
STARTCHAR 010F
ENCODING 271
SWIDTH 660 0
DWIDTH 11 0
BBX 12 16 1 0
BITMAP
0030
0030
0030
0390
03B0
03A0
3F80
7380
E380
E380
E380
E380
E380
E380
7780
3F80
ENDCHAR
STARTCHAR 0110
ENCODING 272
SWIDTH 660 0
DWIDTH 11 0
BBX 10 13 0 0
BITMAP
7F80
7180
71C0
71C0
71C0
71C0
FDC0
71C0
71C0
71C0
71C0
7180
7F80
ENDCHAR
STARTCHAR 0111
ENCODING 273
SWIDTH 660 0
DWIDTH 11 0
BBX 10 14 1 0
BITMAP
0380
07C0
0380
0380
3F80
7380
E380
E380
E380
E380
E380
E380
7780
3F80
ENDCHAR
STARTCHAR 0112
ENCODING 274
SWIDTH 600 0
DWIDTH 10 0
BBX 7 15 1 0
BITMAP
7E
7E
FE
E0
E0
E0
E0
E0
FC
E0
E0
E0
E0
E0
FE
ENDCHAR
STARTCHAR 0113
ENCODING 275
SWIDTH 660 0
DWIDTH 11 0
BBX 9 12 1 0
BITMAP
3E00
3E00
3E00
7700
E380
E380
E380
FF80
E000
E180
E100
7F00
ENDCHAR
STARTCHAR 0114
ENCODING 276
SWIDTH 600 0
DWIDTH 10 0
BBX 7 16 1 0
BITMAP
66
7C
3C
FE
E0
E0
E0
E0
E0
FC
E0
E0
E0
E0
E0
FE
ENDCHAR
STARTCHAR 0115
ENCODING 277
SWIDTH 660 0
DWIDTH 11 0
BBX 9 13 1 0
BITMAP
2200
3E00
1C00
3E00
7700
E380
E380
E380
FF80
E000
E180
E100
7F00
ENDCHAR
STARTCHAR 0116
ENCODING 278
SWIDTH 600 0
DWIDTH 10 0
BBX 7 15 1 0
BITMAP
18
18
FE
E0
E0
E0
E0
E0
FC
E0
E0
E0
E0
E0
FE
ENDCHAR
STARTCHAR 0117
ENCODING 279
SWIDTH 660 0
DWIDTH 11 0
BBX 9 12 1 0
BITMAP
0800
0800
3E00
7700
E380
E380
E380
FF80
E000
E180
E100
7F00
ENDCHAR
STARTCHAR 0118
ENCODING 280
SWIDTH 600 0
DWIDTH 10 0
BBX 7 17 1 -4
BITMAP
FE
E0
E0
E0
E0
E0
FC
E0
E0
E0
E0
E0
FE
18
30
30
18
ENDCHAR
STARTCHAR 0119
ENCODING 281
SWIDTH 660 0
DWIDTH 11 0
BBX 9 14 1 -4
BITMAP
3E00
7700
E380
E380
E380
FF80
E000
E180
E100
7F00
0C00
1000
1000
0C00
ENDCHAR
STARTCHAR 011A
ENCODING 282
SWIDTH 600 0
DWIDTH 10 0
BBX 7 16 1 0
BITMAP
64
3C
18
FE
E0
E0
E0
E0
E0
FC
E0
E0
E0
E0
E0
FE
ENDCHAR
STARTCHAR 011B
ENCODING 283
SWIDTH 660 0
DWIDTH 11 0
BBX 9 13 1 0
BITMAP
3600
1C00
0C00
3E00
7700
E380
E380
E380
FF80
E000
E180
E100
7F00
ENDCHAR
STARTCHAR 011C
ENCODING 284
SWIDTH 660 0
DWIDTH 11 0
BBX 9 16 1 0
BITMAP
0C00
1C00
3600
7F00
E100
E180
E000
E000
E000
E780
E380
E380
E380
E380
7300
3F00
ENDCHAR
STARTCHAR 011D
ENCODING 285
SWIDTH 660 0
DWIDTH 11 0
BBX 9 17 1 -4
BITMAP
0C00
1C00
3600
3F80
7380
E380
E380
E380
E380
E380
E380
7780
3F80
0380
C380
4380
7F00
ENDCHAR
STARTCHAR 011E
ENCODING 286
SWIDTH 660 0
DWIDTH 11 0
BBX 9 17 1 0
BITMAP
2200
3E00
1C00
0000
7F00
E100
E180
E000
E000
E000
E780
E380
E380
E380
E380
7300
3F00
ENDCHAR
STARTCHAR 011F
ENCODING 287
SWIDTH 660 0
DWIDTH 11 0
BBX 9 18 1 -4
BITMAP
2200
3E00
1C00
0000
3F80
7380
E380
E380
E380
E380
E380
E380
7780
3F80
0380
C380
4380
7F00
ENDCHAR
STARTCHAR 0120
ENCODING 288
SWIDTH 660 0
DWIDTH 11 0
BBX 9 15 1 0
BITMAP
0800
0800
7F00
E100
E180
E000
E000
E000
E780
E380
E380
E380
E380
7300
3F00
ENDCHAR
STARTCHAR 0121
ENCODING 289
SWIDTH 660 0
DWIDTH 11 0
BBX 9 16 1 -4
BITMAP
0800
0800
3F80
7380
E380
E380
E380
E380
E380
E380
7780
3F80
0380
C380
4380
7F00
ENDCHAR
STARTCHAR 0122
ENCODING 290
SWIDTH 660 0
DWIDTH 11 0
BBX 9 17 1 -4
BITMAP
7F00
E100
E180
E000
E000
E000
E780
E380
E380
E380
E380
7300
3F00
1800
0400
0400
1800
ENDCHAR
STARTCHAR 0123
ENCODING 291
SWIDTH 660 0
DWIDTH 11 0
BBX 9 18 1 -8
BITMAP
3F80
7380
E380
E380
E380
E380
E380
E380
7780
3F80
0380
C380
4380
7F00
1800
0400
0400
1800
ENDCHAR
STARTCHAR 0124
ENCODING 292
SWIDTH 660 0
DWIDTH 11 0
BBX 9 16 1 0
BITMAP
0C00
1C00
3600
E380
E380
E380
E380
E380
E380
FF80
E380
E380
E380
E380
E380
E380
ENDCHAR
STARTCHAR 0125
ENCODING 293
SWIDTH 660 0
DWIDTH 11 0
BBX 9 16 1 0
BITMAP
1800
3C00
6400
E000
E000
E000
FF00
FF00
E380
E380
E380
E380
E380
E380
E380
E380
ENDCHAR
STARTCHAR 0126
ENCODING 294
SWIDTH 660 0
DWIDTH 11 0
BBX 9 13 1 0
BITMAP
E380
E380
E380
FF80
FF80
E380
FF80
E380
E380
E380
E380
E380
E380
ENDCHAR
STARTCHAR 0127
ENCODING 295
SWIDTH 660 0
DWIDTH 11 0
BBX 9 13 1 0
BITMAP
E000
F800
F800
FF00
FF00
E380
E380
E380
E380
E380
E380
E380
E380
ENDCHAR
STARTCHAR 0128
ENCODING 296
SWIDTH 480 0
DWIDTH 8 0
BBX 8 16 0 0
BITMAP
71
FF
8E
1C
1C
1C
1C
1C
1C
1C
1C
1C
1C
1C
1C
1C
ENDCHAR
STARTCHAR 0129
ENCODING 297
SWIDTH 360 0
DWIDTH 6 0
BBX 8 13 -1 0
BITMAP
73
FF
8E
38
38
38
38
38
38
38
38
38
38
ENDCHAR
STARTCHAR 012A
ENCODING 298
SWIDTH 480 0
DWIDTH 8 0
BBX 6 15 1 0
BITMAP
FC
FC
38
38
38
38
38
38
38
38
38
38
38
38
38
ENDCHAR
STARTCHAR 012B
ENCODING 299
SWIDTH 360 0
DWIDTH 6 0
BBX 6 12 0 0
BITMAP
FC
FC
70
70
70
70
70
70
70
70
70
70
ENDCHAR
STARTCHAR 012E
ENCODING 302
SWIDTH 480 0
DWIDTH 8 0
BBX 3 17 3 -4
BITMAP
E0
E0
E0
E0
E0
E0
E0
E0
E0
E0
E0
E0
E0
E0
80
80
C0
ENDCHAR
STARTCHAR 012F
ENCODING 303
SWIDTH 360 0
DWIDTH 6 0
BBX 3 17 1 -4
BITMAP
E0
00
00
E0
E0
E0
E0
E0
E0
E0
E0
E0
E0
60
C0
C0
60
ENDCHAR
STARTCHAR 0130
ENCODING 304
SWIDTH 360 0
DWIDTH 6 0
BBX 3 15 1 0
BITMAP
E0
00
E0
E0
E0
E0
E0
E0
E0
E0
E0
E0
E0
E0
E0
ENDCHAR
STARTCHAR 0131
ENCODING 305
SWIDTH 360 0
DWIDTH 6 0
BBX 3 10 1 0
BITMAP
E0
E0
E0
E0
E0
E0
E0
E0
E0
E0
ENDCHAR
STARTCHAR 0132
ENCODING 306
SWIDTH 1080 0
DWIDTH 18 0
BBX 14 13 3 0
BITMAP
E01C
E01C
E01C
E01C
E01C
E01C
E01C
E71C
E71C
E71C
E71C
E318
E3F8
ENDCHAR
STARTCHAR 0133
ENCODING 307
SWIDTH 840 0
DWIDTH 14 0
BBX 12 16 1 -3
BITMAP
E070
0000
0000
E070
E070
E070
E070
E070
E070
E070
E070
E070
E070
0470
0460
03E0
ENDCHAR
STARTCHAR 0134
ENCODING 308
SWIDTH 600 0
DWIDTH 10 0
BBX 9 16 0 0
BITMAP
0300
0700
0C80
0300
0300
0300
0300
0300
0300
0300
E300
E300
E300
E300
E700
7E00
ENDCHAR
STARTCHAR 0135
ENCODING 309
SWIDTH 480 0
DWIDTH 8 0
BBX 8 16 0 -3
BITMAP
0E
0E
1B
0E
0E
0E
0E
0E
0E
0E
0E
0E
0E
8E
CE
7C
ENDCHAR
STARTCHAR 0136
ENCODING 310
SWIDTH 780 0
DWIDTH 13 0
BBX 10 17 1 -4
BITMAP
E1C0
E380
E300
E600
EC00
FC00
F800
F800
FC00
EE00
E700
E380
E1C0
E000
2000
2000
6000
ENDCHAR
STARTCHAR 0137
ENCODING 311
SWIDTH 660 0
DWIDTH 11 0
BBX 10 17 1 -4
BITMAP
E000
E000
E000
E1C0
E300
E600
FC00
F800
F800
FC00
EE00
E300
E1C0
E000
2000
2000
6000
ENDCHAR
STARTCHAR 0139
ENCODING 313
SWIDTH 600 0
DWIDTH 10 0
BBX 7 16 1 0
BITMAP
20
40
40
E0
E0
E0
E0
E0
E0
E0
E0
E0
E0
E0
E0
FE
ENDCHAR
STARTCHAR 013A
ENCODING 314
SWIDTH 360 0
DWIDTH 6 0
BBX 3 16 1 0
BITMAP
20
40
40
E0
E0
E0
E0
E0
E0
E0
E0
E0
E0
E0
E0
E0
ENDCHAR
STARTCHAR 013B
ENCODING 315
SWIDTH 600 0
DWIDTH 10 0
BBX 7 17 1 -4
BITMAP
E0
E0
E0
E0
E0
E0
E0
E0
E0
E0
E0
E0
FE
18
08
08
18
ENDCHAR
STARTCHAR 013C
ENCODING 316
SWIDTH 360 0
DWIDTH 6 0
BBX 3 17 1 -4
BITMAP
E0
E0
E0
E0
E0
E0
E0
E0
E0
E0
E0
E0
E0
E0
20
20
60
ENDCHAR
STARTCHAR 013D
ENCODING 317
SWIDTH 600 0
DWIDTH 10 0
BBX 7 13 1 0
BITMAP
E6
E6
E6
E2
E6
E4
E0
E0
E0
E0
E0
E0
FE
ENDCHAR
STARTCHAR 013E
ENCODING 318
SWIDTH 360 0
DWIDTH 6 0
BBX 7 13 1 0
BITMAP
EE
EE
EE
E6
EC
E8
E0
E0
E0
E0
E0
E0
E0
ENDCHAR
STARTCHAR 013F
ENCODING 319
SWIDTH 600 0
DWIDTH 10 0
BBX 7 13 1 0
BITMAP
E0
E0
E0
E0
E0
E6
E6
E0
E0
E0
E0
E0
FE
ENDCHAR
STARTCHAR 0140
ENCODING 320
SWIDTH 360 0
DWIDTH 6 0
BBX 6 13 1 0
BITMAP
E0
E0
E0
E0
E0
E0
EC
EC
E0
E0
E0
E0
E0
ENDCHAR
STARTCHAR 0141
ENCODING 321
SWIDTH 600 0
DWIDTH 10 0
BBX 8 13 0 0
BITMAP
70
70
70
70
7C
78
F0
F0
70
70
70
70
7F
ENDCHAR
STARTCHAR 0142
ENCODING 322
SWIDTH 360 0
DWIDTH 6 0
BBX 6 13 0 0
BITMAP
70
70
70
70
7C
78
F0
F0
70
70
70
70
70
ENDCHAR
STARTCHAR 0143
ENCODING 323
SWIDTH 780 0
DWIDTH 13 0
BBX 10 16 1 0
BITMAP
0400
0400
0800
C040
E040
F040
F840
FC40
FE40
FF40
DFC0
CFC0
C3C0
C1C0
C0C0
C040
ENDCHAR
STARTCHAR 0144
ENCODING 324
SWIDTH 660 0
DWIDTH 11 0
BBX 9 13 1 0
BITMAP
0C00
0800
1800
FF00
FF00
E380
E380
E380
E380
E380
E380
E380
E380
ENDCHAR
STARTCHAR 0145
ENCODING 325
SWIDTH 780 0
DWIDTH 13 0
BBX 10 17 1 -4
BITMAP
C040
E040
F040
F840
FC40
FE40
FF40
DFC0
CFC0
C3C0
C1C0
C0C0
C040
E000
2000
2000
6000
ENDCHAR
STARTCHAR 0146
ENCODING 326
SWIDTH 660 0
DWIDTH 11 0
BBX 9 14 1 -4
BITMAP
FF00
FF00
E380
E380
E380
E380
E380
E380
E380
E380
E000
2000
2000
6000
ENDCHAR
STARTCHAR 0147
ENCODING 327
SWIDTH 780 0
DWIDTH 13 0
BBX 10 16 1 0
BITMAP
1B00
0E00
0C00
C040
E040
F040
F840
FC40
FE40
FF40
DFC0
CFC0
C3C0
C1C0
C0C0
C040
ENDCHAR
STARTCHAR 0148
ENCODING 328
SWIDTH 660 0
DWIDTH 11 0
BBX 9 13 1 0
BITMAP
3600
1C00
0C00
FF00
FF00
E380
E380
E380
E380
E380
E380
E380
E380
ENDCHAR
STARTCHAR 0149
ENCODING 329
SWIDTH 660 0
DWIDTH 11 0
BBX 9 15 1 -5
BITMAP
FF00
FF00
E380
E380
E380
E380
E380
E380
E380
E380
0000
0000
0000
0300
0200
ENDCHAR
STARTCHAR 014C
ENCODING 332
SWIDTH 660 0
DWIDTH 11 0
BBX 9 15 1 0
BITMAP
3E00
3E00
3F00
7300
E380
E380
E380
E380
E380
E380
E380
E380
E380
7300
3F00
ENDCHAR
STARTCHAR 014D
ENCODING 333
SWIDTH 660 0
DWIDTH 11 0
BBX 9 12 1 0
BITMAP
3E00
3E00
3F00
7300
E380
E380
E380
E380
E380
E380
7300
3F00
ENDCHAR
STARTCHAR 014E
ENCODING 334
SWIDTH 660 0
DWIDTH 11 0
BBX 9 16 1 0
BITMAP
2200
3E00
1C00
3F00
7300
E380
E380
E380
E380
E380
E380
E380
E380
E380
7300
3F00
ENDCHAR
STARTCHAR 014F
ENCODING 335
SWIDTH 660 0
DWIDTH 11 0
BBX 9 13 1 0
BITMAP
2200
3E00
1C00
3F00
7300
E380
E380
E380
E380
E380
E380
7300
3F00
ENDCHAR
STARTCHAR 0150
ENCODING 336
SWIDTH 660 0
DWIDTH 11 0
BBX 9 16 1 0
BITMAP
0B00
1A00
1600
3F00
7300
E380
E380
E380
E380
E380
E380
E380
E380
E380
7300
3F00
ENDCHAR
STARTCHAR 0151
ENCODING 337
SWIDTH 660 0
DWIDTH 11 0
BBX 9 13 1 0
BITMAP
0B00
1A00
1600
3F00
7300
E380
E380
E380
E380
E380
E380
7300
3F00
ENDCHAR
STARTCHAR 0152
ENCODING 338
SWIDTH 900 0
DWIDTH 15 0
BBX 13 13 1 0
BITMAP
3FF8
7380
E380
E380
E380
E380
E3F0
E380
E380
E380
E380
7380
3FF8
ENDCHAR
STARTCHAR 0153
ENCODING 339
SWIDTH 1020 0
DWIDTH 17 0
BBX 14 10 1 0
BITMAP
3EF8
739C
E39C
E39C
E3FC
E380
E380
E384
E384
7FF8
ENDCHAR
STARTCHAR 0154
ENCODING 340
SWIDTH 660 0
DWIDTH 11 0
BBX 9 16 1 0
BITMAP
0C00
0800
1800
FE00
E300
E380
E380
E380
E300
FE00
E380
E380
E380
E380
E380
E380
ENDCHAR
STARTCHAR 0155
ENCODING 341
SWIDTH 480 0
DWIDTH 8 0
BBX 7 13 1 0
BITMAP
08
18
10
EE
FE
FC
F0
E0
E0
E0
E0
E0
E0
ENDCHAR
STARTCHAR 0156
ENCODING 342
SWIDTH 660 0
DWIDTH 11 0
BBX 9 17 1 -4
BITMAP
FE00
E300
E380
E380
E380
E300
FE00
E380
E380
E380
E380
E380
E380
E000
2000
2000
6000
ENDCHAR
STARTCHAR 0157
ENCODING 343
SWIDTH 480 0
DWIDTH 8 0
BBX 7 14 1 -4
BITMAP
EE
FE
FC
F0
E0
E0
E0
E0
E0
E0
E0
20
20
60
ENDCHAR
STARTCHAR 0158
ENCODING 344
SWIDTH 660 0
DWIDTH 11 0
BBX 9 16 1 0
BITMAP
6400
3C00
1800
FE00
E300
E380
E380
E380
E300
FE00
E380
E380
E380
E380
E380
E380
ENDCHAR
STARTCHAR 0159
ENCODING 345
SWIDTH 480 0
DWIDTH 8 0
BBX 7 13 1 0
BITMAP
64
3C
18
EE
FE
FC
F0
E0
E0
E0
E0
E0
E0
ENDCHAR
STARTCHAR 015A
ENCODING 346
SWIDTH 600 0
DWIDTH 10 0
BBX 7 16 1 0
BITMAP
08
18
10
3C
66
E2
E0
F0
78
3C
1C
1E
0E
C6
4E
7C
ENDCHAR
STARTCHAR 015B
ENCODING 347
SWIDTH 600 0
DWIDTH 10 0
BBX 7 13 1 0
BITMAP
08
18
10
3E
62
E0
F0
7C
3E
1E
0E
CE
7C
ENDCHAR
STARTCHAR 015C
ENCODING 348
SWIDTH 600 0
DWIDTH 10 0
BBX 7 16 1 0
BITMAP
18
3C
64
3C
66
E2
E0
F0
78
3C
1C
1E
0E
C6
4E
7C
ENDCHAR
STARTCHAR 015D
ENCODING 349
SWIDTH 600 0
DWIDTH 10 0
BBX 7 13 1 0
BITMAP
18
3C
64
3E
62
E0
F0
7C
3E
1E
0E
CE
7C
ENDCHAR
STARTCHAR 015E
ENCODING 350
SWIDTH 600 0
DWIDTH 10 0
BBX 7 17 1 -4
BITMAP
7C
E6
E2
E0
70
78
3C
1C
1E
0E
06
CE
7C
18
04
04
18
ENDCHAR
STARTCHAR 015F
ENCODING 351
SWIDTH 600 0
DWIDTH 10 0
BBX 7 14 1 -4
BITMAP
3E
72
E0
F0
7C
3E
0E
06
CE
7C
18
04
04
18
ENDCHAR
STARTCHAR 0160
ENCODING 352
SWIDTH 600 0
DWIDTH 10 0
BBX 7 17 1 0
BITMAP
64
3C
18
00
3C
66
E2
E0
F0
78
3C
1C
1E
0E
C6
4E
7C
ENDCHAR
STARTCHAR 0161
ENCODING 353
SWIDTH 600 0
DWIDTH 10 0
BBX 7 14 1 0
BITMAP
64
3C
18
00
3E
62
E0
F0
7C
3E
1E
0E
CE
7C
ENDCHAR
STARTCHAR 0162
ENCODING 354
SWIDTH 480 0
DWIDTH 8 0
BBX 8 17 0 -4
BITMAP
FF
1C
1C
1C
1C
1C
1C
1C
1C
1C
1C
1C
1C
18
0C
0C
18
ENDCHAR
STARTCHAR 0163
ENCODING 355
SWIDTH 480 0
DWIDTH 8 0
BBX 6 17 1 -4
BITMAP
38
38
38
FC
38
38
38
38
38
38
38
38
1C
18
04
04
18
ENDCHAR
STARTCHAR 0164
ENCODING 356
SWIDTH 480 0
DWIDTH 8 0
BBX 8 16 0 0
BITMAP
26
3C
18
FF
1C
1C
1C
1C
1C
1C
1C
1C
1C
1C
1C
1C
ENDCHAR
STARTCHAR 0165
ENCODING 357
SWIDTH 480 0
DWIDTH 8 0
BBX 9 16 1 0
BITMAP
0380
0380
0380
3980
3B00
3A00
FC00
3800
3800
3800
3800
3800
3800
3800
3800
1C00
ENDCHAR
STARTCHAR 0166
ENCODING 358
SWIDTH 480 0
DWIDTH 8 0
BBX 8 13 0 0
BITMAP
FF
1C
1C
1C
1C
1C
7E
7E
1C
1C
1C
1C
1C
ENDCHAR
STARTCHAR 0167
ENCODING 359
SWIDTH 480 0
DWIDTH 8 0
BBX 6 13 1 0
BITMAP
38
38
38
FC
38
38
FC
FC
38
38
38
38
1C
ENDCHAR
STARTCHAR 0168
ENCODING 360
SWIDTH 660 0
DWIDTH 11 0
BBX 9 16 1 0
BITMAP
3980
7F00
C700
E380
E380
E380
E380
E380
E380
E380
E380
E380
E380
E380
7300
3F00
ENDCHAR
STARTCHAR 0169
ENCODING 361
SWIDTH 660 0
DWIDTH 11 0
BBX 9 13 1 0
BITMAP
3980
7F00
C700
E380
E380
E380
E380
E380
E380
E380
E380
7780
3F80
ENDCHAR
STARTCHAR 016A
ENCODING 362
SWIDTH 660 0
DWIDTH 11 0
BBX 9 15 1 0
BITMAP
3E00
3E00
E380
E380
E380
E380
E380
E380
E380
E380
E380
E380
E380
7300
3F00
ENDCHAR
STARTCHAR 016B
ENCODING 363
SWIDTH 660 0
DWIDTH 11 0
BBX 9 12 1 0
BITMAP
3E00
3E00
E380
E380
E380
E380
E380
E380
E380
E380
7780
3F80
ENDCHAR
STARTCHAR 016C
ENCODING 364
SWIDTH 660 0
DWIDTH 11 0
BBX 9 16 1 0
BITMAP
2200
3E00
1C00
E380
E380
E380
E380
E380
E380
E380
E380
E380
E380
E380
7300
3F00
ENDCHAR
STARTCHAR 016D
ENCODING 365
SWIDTH 660 0
DWIDTH 11 0
BBX 9 13 1 0
BITMAP
2200
3E00
1C00
E380
E380
E380
E380
E380
E380
E380
E380
7780
3F80
ENDCHAR
STARTCHAR 016E
ENCODING 366
SWIDTH 660 0
DWIDTH 11 0
BBX 9 19 1 0
BITMAP
1C00
3200
2200
3200
3E00
1C00
E380
E380
E380
E380
E380
E380
E380
E380
E380
E380
E380
7300
3F00
ENDCHAR
STARTCHAR 016F
ENCODING 367
SWIDTH 660 0
DWIDTH 11 0
BBX 9 16 1 0
BITMAP
1C00
3200
2200
3200
3E00
1C00
E380
E380
E380
E380
E380
E380
E380
E380
7780
3F80
ENDCHAR
STARTCHAR 0170
ENCODING 368
SWIDTH 660 0
DWIDTH 11 0
BBX 9 16 1 0
BITMAP
0B00
1A00
1600
E380
E380
E380
E380
E380
E380
E380
E380
E380
E380
E380
7300
3F00
ENDCHAR
STARTCHAR 0171
ENCODING 369
SWIDTH 660 0
DWIDTH 11 0
BBX 9 13 1 0
BITMAP
0B00
1A00
1600
E380
E380
E380
E380
E380
E380
E380
E380
7780
3F80
ENDCHAR
STARTCHAR 0172
ENCODING 370
SWIDTH 660 0
DWIDTH 11 0
BBX 9 17 1 -4
BITMAP
E380
E380
E380
E380
E380
E380
E380
E380
E380
E380
E380
7300
3F00
0C00
1800
1800
0C00
ENDCHAR
STARTCHAR 0173
ENCODING 371
SWIDTH 660 0
DWIDTH 11 0
BBX 9 14 1 -4
BITMAP
E380
E380
E380
E380
E380
E380
E380
E380
7780
3F80
0180
0200
0200
0180
ENDCHAR
STARTCHAR 0174
ENCODING 372
SWIDTH 1020 0
DWIDTH 17 0
BBX 14 16 1 0
BITMAP
0300
0380
04C0
E39C
E39C
E39C
E39C
E39C
E39C
E39C
E39C
E39C
E39C
E39C
E398
FFF0
ENDCHAR
STARTCHAR 0175
ENCODING 373
SWIDTH 1020 0
DWIDTH 17 0
BBX 14 13 1 0
BITMAP
0300
0380
04C0
E39C
E39C
E39C
E39C
E39C
E39C
E39C
E39C
E398
FFF0
ENDCHAR
STARTCHAR 0176
ENCODING 374
SWIDTH 660 0
DWIDTH 11 0
BBX 9 16 1 0
BITMAP
0C00
1C00
3600
E380
E380
E380
E380
E380
6380
7F00
1C00
1C00
1C00
1C00
1C00
1C00
ENDCHAR
STARTCHAR 0177
ENCODING 375
SWIDTH 660 0
DWIDTH 11 0
BBX 9 17 1 -4
BITMAP
0C00
1C00
3600
E380
E380
E380
E380
E380
E380
E380
E380
7780
3F80
0380
0380
4300
7F00
ENDCHAR
STARTCHAR 0178
ENCODING 376
SWIDTH 660 0
DWIDTH 11 0
BBX 9 16 1 0
BITMAP
2200
2200
0000
E380
E380
E380
E380
E380
6380
7F00
1C00
1C00
1C00
1C00
1C00
1C00
ENDCHAR
STARTCHAR 0179
ENCODING 377
SWIDTH 660 0
DWIDTH 11 0
BBX 9 16 1 0
BITMAP
0C00
0800
1800
FF80
0F00
0300
0600
0600
0C00
0C00
1800
1800
3000
3000
6000
7F80
ENDCHAR
STARTCHAR 017A
ENCODING 378
SWIDTH 660 0
DWIDTH 11 0
BBX 9 13 1 0
BITMAP
0C00
0800
1800
FF80
0780
0700
0F00
0E00
1C00
3800
7000
F000
FF80
ENDCHAR
STARTCHAR 017B
ENCODING 379
SWIDTH 660 0
DWIDTH 11 0
BBX 9 15 1 0
BITMAP
0800
0800
FF80
0F00
0300
0600
0600
0C00
0C00
1800
1800
3000
3000
6000
7F80
ENDCHAR
STARTCHAR 017C
ENCODING 380
SWIDTH 660 0
DWIDTH 11 0
BBX 9 12 1 0
BITMAP
0800
0800
FF80
0780
0700
0F00
0E00
1C00
3800
7000
F000
FF80
ENDCHAR
STARTCHAR 017D
ENCODING 381
SWIDTH 660 0
DWIDTH 11 0
BBX 9 17 1 0
BITMAP
3600
1C00
0C00
0000
FF80
0F00
0300
0600
0600
0C00
0C00
1800
1800
3000
3000
6000
7F80
ENDCHAR
STARTCHAR 017E
ENCODING 382
SWIDTH 660 0
DWIDTH 11 0
BBX 9 14 1 0
BITMAP
3600
1C00
0C00
0000
FF80
0780
0700
0F00
0E00
1C00
3800
7000
F000
FF80
ENDCHAR
STARTCHAR 0192
ENCODING 402
SWIDTH 480 0
DWIDTH 8 0
BBX 6 16 1 -3
BITMAP
1C
38
38
38
38
FC
38
38
38
38
38
38
38
38
70
E0
ENDCHAR
STARTCHAR 01F5
ENCODING 501
SWIDTH 660 0
DWIDTH 11 0
BBX 9 17 1 -4
BITMAP
0200
0600
0400
3F80
7380
E380
E380
E380
E380
E380
E380
7780
3F80
0380
C380
4380
7F00
ENDCHAR
STARTCHAR 02C6
ENCODING 710
SWIDTH 480 0
DWIDTH 8 0
BBX 5 3 2 11
BITMAP
60
F0
98
ENDCHAR
STARTCHAR 02C7
ENCODING 711
SWIDTH 480 0
DWIDTH 8 0
BBX 5 3 2 11
BITMAP
98
F0
60
ENDCHAR
STARTCHAR 02C9
ENCODING 713
SWIDTH 480 0
DWIDTH 8 0
BBX 6 2 1 11
BITMAP
FC
FC
ENDCHAR
STARTCHAR 02D8
ENCODING 728
SWIDTH 480 0
DWIDTH 8 0
BBX 6 3 1 11
BITMAP
CC
7C
38
ENDCHAR
STARTCHAR 02D9
ENCODING 729
SWIDTH 480 0
DWIDTH 8 0
BBX 2 2 3 11
BITMAP
C0
C0
ENDCHAR
STARTCHAR 02DA
ENCODING 730
SWIDTH 480 0
DWIDTH 8 0
BBX 6 6 1 11
BITMAP
38
4C
C4
CC
7C
38
ENDCHAR
STARTCHAR 02DB
ENCODING 731
SWIDTH 480 0
DWIDTH 8 0
BBX 3 4 3 -4
BITMAP
E0
80
80
C0
ENDCHAR
STARTCHAR 02DC
ENCODING 732
SWIDTH 660 0
DWIDTH 11 0
BBX 9 3 1 11
BITMAP
3980
7F00
C700
ENDCHAR
STARTCHAR 02DD
ENCODING 733
SWIDTH 480 0
DWIDTH 8 0
BBX 5 3 2 11
BITMAP
58
90
B0
ENDCHAR
STARTCHAR 0326
ENCODING 806
SWIDTH 360 0
DWIDTH 6 0
BBX 3 6 1 -3
BITMAP
E0
E0
E0
20
E0
C0
ENDCHAR
STARTCHAR 0394
ENCODING 916
SWIDTH 780 0
DWIDTH 13 0
BBX 10 13 1 0
BITMAP
0C00
0E00
0E00
1E00
1700
3700
2300
2380
6180
41C0
7FC0
FFC0
FFC0
ENDCHAR
STARTCHAR 03A9
ENCODING 937
SWIDTH 840 0
DWIDTH 14 0
BBX 12 13 1 0
BITMAP
3FC0
70E0
E060
E070
E070
E070
E070
E070
79E0
79E0
1980
1980
F9F0
ENDCHAR
STARTCHAR 03BC
ENCODING 956
SWIDTH 840 0
DWIDTH 14 0
BBX 10 13 2 -3
BITMAP
39C0
39C0
31C0
71C0
7180
7180
7380
6380
F3C0
FFC0
E000
E000
C000
ENDCHAR
STARTCHAR 03C0
ENCODING 960
SWIDTH 900 0
DWIDTH 15 0
BBX 13 11 1 0
BITMAP
0008
7FF8
B8E0
38E0
38E0
38E0
38E0
38E0
38E0
38E0
38E0
ENDCHAR
STARTCHAR 2010
ENCODING 8208
SWIDTH 600 0
DWIDTH 10 0
BBX 7 2 1 4
BITMAP
FE
FE
ENDCHAR
STARTCHAR 2013
ENCODING 8211
SWIDTH 480 0
DWIDTH 8 0
BBX 6 2 1 4
BITMAP
FC
FC
ENDCHAR
STARTCHAR 2014
ENCODING 8212
SWIDTH 840 0
DWIDTH 14 0
BBX 12 2 1 4
BITMAP
FFF0
FFF0
ENDCHAR
STARTCHAR 2018
ENCODING 8216
SWIDTH 360 0
DWIDTH 6 0
BBX 3 6 1 7
BITMAP
20
60
40
E0
E0
E0
ENDCHAR
STARTCHAR 2019
ENCODING 8217
SWIDTH 360 0
DWIDTH 6 0
BBX 3 6 1 7
BITMAP
E0
E0
60
20
E0
C0
ENDCHAR
STARTCHAR 201A
ENCODING 8218
SWIDTH 360 0
DWIDTH 6 0
BBX 3 6 1 -3
BITMAP
E0
E0
E0
20
E0
C0
ENDCHAR
STARTCHAR 201C
ENCODING 8220
SWIDTH 600 0
DWIDTH 10 0
BBX 7 6 1 7
BITMAP
22
66
44
E6
E6
E6
ENDCHAR
STARTCHAR 201D
ENCODING 8221
SWIDTH 600 0
DWIDTH 10 0
BBX 7 6 1 7
BITMAP
E6
E6
66
22
E6
C4
ENDCHAR
STARTCHAR 201E
ENCODING 8222
SWIDTH 600 0
DWIDTH 10 0
BBX 7 6 1 -3
BITMAP
E6
E6
E6
22
E6
C4
ENDCHAR
STARTCHAR 2020
ENCODING 8224
SWIDTH 420 0
DWIDTH 7 0
BBX 5 7 1 6
BITMAP
20
20
F8
20
20
20
20
ENDCHAR
STARTCHAR 2021
ENCODING 8225
SWIDTH 420 0
DWIDTH 7 0
BBX 5 9 1 4
BITMAP
20
20
F8
20
20
20
F8
20
20
ENDCHAR
STARTCHAR 2022
ENCODING 8226
SWIDTH 600 0
DWIDTH 10 0
BBX 7 7 1 3
BITMAP
3C
7E
7E
FE
7E
7E
3C
ENDCHAR
STARTCHAR 2026
ENCODING 8230
SWIDTH 1140 0
DWIDTH 19 0
BBX 14 3 3 0
BITMAP
E71C
E71C
E71C
ENDCHAR
STARTCHAR 2030
ENCODING 8240
SWIDTH 1260 0
DWIDTH 21 0
BBX 18 13 1 0
BITMAP
3BC000
4C8000
C58000
C58000
4D0000
3B0000
020000
060000
04F380
049E40
0D9C40
089E40
18F380
ENDCHAR
STARTCHAR 2039
ENCODING 8249
SWIDTH 480 0
DWIDTH 8 0
BBX 4 9 2 1
BITMAP
10
20
40
80
80
40
20
10
10
ENDCHAR
STARTCHAR 203A
ENCODING 8250
SWIDTH 480 0
DWIDTH 8 0
BBX 5 10 2 0
BITMAP
80
80
40
20
10
18
30
60
C0
80
ENDCHAR
STARTCHAR 2044
ENCODING 8260
SWIDTH 240 0
DWIDTH 4 0
BBX 6 13 -1 0
BITMAP
04
04
08
08
18
10
30
20
20
40
40
C0
80
ENDCHAR
STARTCHAR 20A3
ENCODING 8355
SWIDTH 600 0
DWIDTH 10 0
BBX 8 13 0 0
BITMAP
7F
70
70
70
70
7E
70
70
70
FC
70
70
70
ENDCHAR
STARTCHAR 20AC
ENCODING 8364
SWIDTH 720 0
DWIDTH 12 0
BBX 10 11 1 0
BITMAP
0F80
1840
2000
2000
FF80
4000
FF80
2000
2000
1840
0F80
ENDCHAR
STARTCHAR 2122
ENCODING 8482
SWIDTH 900 0
DWIDTH 15 0
BBX 13 6 1 7
BITMAP
FA08
2318
22B8
22F8
2258
2218
ENDCHAR
STARTCHAR 2126
ENCODING 8486
SWIDTH 840 0
DWIDTH 14 0
BBX 12 13 1 0
BITMAP
3FC0
70E0
E060
E070
E070
E070
E070
E070
79E0
79E0
1980
1980
F9F0
ENDCHAR
STARTCHAR 2190
ENCODING 8592
SWIDTH 1020 0
DWIDTH 17 0
BBX 14 7 1 3
BITMAP
1000
3000
7000
FFFC
7000
3000
1000
ENDCHAR
STARTCHAR 2191
ENCODING 8593
SWIDTH 780 0
DWIDTH 13 0
BBX 6 14 3 -1
BITMAP
10
38
78
FC
10
10
10
10
10
10
10
10
10
10
ENDCHAR
STARTCHAR 2192
ENCODING 8594
SWIDTH 1020 0
DWIDTH 17 0
BBX 14 5 1 4
BITMAP
0010
0018
FFFC
0018
0010
ENDCHAR
STARTCHAR 2193
ENCODING 8595
SWIDTH 780 0
DWIDTH 13 0
BBX 6 14 3 -1
BITMAP
10
10
10
10
10
10
10
10
10
10
10
FC
38
10
ENDCHAR
STARTCHAR 21A9
ENCODING 8617
SWIDTH 1080 0
DWIDTH 18 0
BBX 15 12 2 1
BITMAP
003E
000C
000C
0008
0018
2010
6030
E020
FFE0
6000
6000
2000
ENDCHAR
STARTCHAR 21AA
ENCODING 8618
SWIDTH 1080 0
DWIDTH 18 0
BBX 16 12 1 1
BITMAP
F800
6000
6000
2000
3000
1008
180C
080E
0FFF
000E
000C
0008
ENDCHAR
STARTCHAR 21B0
ENCODING 8624
SWIDTH 900 0
DWIDTH 15 0
BBX 12 12 1 0
BITMAP
F800
F000
F000
D800
8C00
0600
0300
0180
00C0
0040
0020
0010
ENDCHAR
STARTCHAR 21B3
ENCODING 8627
SWIDTH 900 0
DWIDTH 15 0
BBX 13 12 1 1
BITMAP
C000
6000
3000
1800
0C00
0600
0300
0180
00C8
0078
0078
00F8
ENDCHAR
STARTCHAR 21DE
ENCODING 8670
SWIDTH 780 0
DWIDTH 13 0
BBX 7 14 3 -1
BITMAP
10
38
78
FC
10
10
FE
10
10
FE
10
10
10
10
ENDCHAR
STARTCHAR 21DF
ENCODING 8671
SWIDTH 780 0
DWIDTH 13 0
BBX 7 14 3 -1
BITMAP
10
10
10
10
10
FE
10
10
FE
10
10
FC
38
10
ENDCHAR
STARTCHAR 21E0
ENCODING 8672
SWIDTH 1020 0
DWIDTH 17 0
BBX 14 7 1 3
BITMAP
1000
3000
7000
FDDC
7000
3000
1000
ENDCHAR
STARTCHAR 21E1
ENCODING 8673
SWIDTH 780 0
DWIDTH 13 0
BBX 6 14 3 -1
BITMAP
10
38
78
FC
10
10
00
00
10
10
00
00
10
10
ENDCHAR
STARTCHAR 21E2
ENCODING 8674
SWIDTH 1020 0
DWIDTH 17 0
BBX 14 5 1 4
BITMAP
0010
0018
E67C
0018
0010
ENDCHAR
STARTCHAR 21E3
ENCODING 8675
SWIDTH 780 0
DWIDTH 13 0
BBX 6 14 3 -1
BITMAP
10
10
00
00
00
10
10
00
00
10
10
FC
38
10
ENDCHAR
STARTCHAR 21E4
ENCODING 8676
SWIDTH 1020 0
DWIDTH 17 0
BBX 14 10 1 1
BITMAP
C000
C400
C400
CC00
DFFC
DC00
CC00
C400
C000
C000
ENDCHAR
STARTCHAR 21E5
ENCODING 8677
SWIDTH 1020 0
DWIDTH 17 0
BBX 14 10 1 1
BITMAP
0004
0004
0044
0064
FFF4
0064
0044
0084
0004
0004
ENDCHAR
STARTCHAR 21E7
ENCODING 8679
SWIDTH 1140 0
DWIDTH 19 0
BBX 16 13 2 0
BITMAP
0100
0380
07C0
0E60
0C30
1818
301C
600E
F83F
0830
0830
0830
0FF0
ENDCHAR
STARTCHAR 21EA
ENCODING 8682
SWIDTH 1140 0
DWIDTH 19 0
BBX 16 17 2 -4
BITMAP
0100
0380
06C0
0C60
1830
3018
600E
F83F
0830
0830
0830
0FF0
0000
0FF0
0830
0830
0FF0
ENDCHAR
STARTCHAR 2202
ENCODING 8706
SWIDTH 660 0
DWIDTH 11 0
BBX 9 13 1 0
BITMAP
1E00
0300
0180
0180
0180
3F80
7380
6380
E380
E380
E300
E700
7E00
ENDCHAR
STARTCHAR 2206
ENCODING 8710
SWIDTH 780 0
DWIDTH 13 0
BBX 10 13 1 0
BITMAP
0C00
0E00
0E00
1E00
1700
3700
2300
2380
6180
41C0
7FC0
FFC0
FFC0
ENDCHAR
STARTCHAR 220F
ENCODING 8719
SWIDTH 840 0
DWIDTH 14 0
BBX 12 14 1 -1
BITMAP
FFF0
39C0
39C0
39C0
39C0
39C0
39C0
39C0
39C0
39C0
39C0
39C0
39C0
39C0
ENDCHAR
STARTCHAR 2211
ENCODING 8721
SWIDTH 780 0
DWIDTH 13 0
BBX 10 14 1 -1
BITMAP
FFC0
FC00
7000
3800
1C00
0E00
0700
0700
0E00
1C00
1800
3000
7000
FFC0
ENDCHAR
STARTCHAR 2212
ENCODING 8722
SWIDTH 660 0
DWIDTH 11 0
BBX 9 2 1 4
BITMAP
FF80
FF80
ENDCHAR
STARTCHAR 2219
ENCODING 8729
SWIDTH 360 0
DWIDTH 6 0
BBX 3 3 1 4
BITMAP
E0
E0
E0
ENDCHAR
STARTCHAR 221A
ENCODING 8730
SWIDTH 1020 0
DWIDTH 17 0
BBX 14 14 1 0
BITMAP
003C
0020
0060
0060
00C0
00C0
0080
E180
3180
3300
1300
1B00
1E00
0E00
ENDCHAR
STARTCHAR 221E
ENCODING 8734
SWIDTH 1140 0
DWIDTH 19 0
BBX 15 7 2 3
BITMAP
383C
4426
C6C2
8382
C382
4646
3C3C
ENDCHAR
STARTCHAR 222B
ENCODING 8747
SWIDTH 480 0
DWIDTH 8 0
BBX 6 16 1 -3
BITMAP
1C
38
38
38
38
38
38
38
38
38
38
38
38
38
70
E0
ENDCHAR
STARTCHAR 2248
ENCODING 8776
SWIDTH 660 0
DWIDTH 11 0
BBX 8 7 2 3
BITMAP
F3
FE
00
00
00
F3
9E
ENDCHAR
STARTCHAR 2260
ENCODING 8800
SWIDTH 780 0
DWIDTH 13 0
BBX 8 7 2 1
BITMAP
06
FF
08
18
FF
20
20
ENDCHAR
STARTCHAR 2264
ENCODING 8804
SWIDTH 480 0
DWIDTH 8 0
BBX 6 10 1 0
BITMAP
08
18
30
60
60
30
18
08
00
FC
ENDCHAR
STARTCHAR 2265
ENCODING 8805
SWIDTH 480 0
DWIDTH 8 0
BBX 6 10 1 0
BITMAP
40
20
18
0C
18
30
20
00
00
FC
ENDCHAR
STARTCHAR 22F2
ENCODING 8946
SWIDTH 660 0
DWIDTH 11 0
BBX 8 7 2 3
BITMAP
F3
FE
00
00
00
F3
9E
ENDCHAR
STARTCHAR 2303
ENCODING 8963
SWIDTH 900 0
DWIDTH 15 0
BBX 10 7 3 6
BITMAP
0800
1C00
3E00
7700
6380
C1C0
80C0
ENDCHAR
STARTCHAR 2318
ENCODING 8984
SWIDTH 900 0
DWIDTH 15 0
BBX 13 13 1 0
BITMAP
3870
4898
C598
C598
4598
3FF0
0580
0580
7FF0
4598
C598
4C98
78F0
ENDCHAR
STARTCHAR 2325
ENCODING 8997
SWIDTH 1140 0
DWIDTH 19 0
BBX 17 13 1 0
BITMAP
FE3F80
060000
030000
030000
018000
018000
00C000
00C000
006000
006000
003000
003000
001F80
ENDCHAR
STARTCHAR 2326
ENCODING 8998
SWIDTH 1320 0
DWIDTH 22 0
BBX 19 13 1 0
BITMAP
FFF800
C00400
C00600
CC3300
C66180
C3C0C0
C18060
C3C040
C66080
CC3100
C00200
C00400
FFF800
ENDCHAR
STARTCHAR 2327
ENCODING 8999
SWIDTH 1080 0
DWIDTH 18 0
BBX 16 17 1 -3
BITMAP
3004
1008
FFFF
CC33
C623
C663
C243
C383
C183
C183
C3C3
C243
C663
CC33
FFFF
1818
300C
ENDCHAR
STARTCHAR 232B
ENCODING 9003
SWIDTH 1320 0
DWIDTH 22 0
BBX 18 13 2 0
BITMAP
07FFC0
0C0040
180040
310440
618C40
40D840
807040
C07040
60D840
318C40
190440
0C0040
07FFC0
ENDCHAR
STARTCHAR 240D
ENCODING 9229
SWIDTH 1140 0
DWIDTH 19 0
BBX 16 12 2 1
BITMAP
003E
0003
0001
0001
0001
2001
6001
E003
FFFE
6000
6000
2000
ENDCHAR
STARTCHAR 241B
ENCODING 9243
SWIDTH 900 0
DWIDTH 15 0
BBX 13 13 1 0
BITMAP
F980
F1E0
E070
F030
9818
0C18
0618
C018
4018
6010
2030
1060
0F80
ENDCHAR
STARTCHAR 2423
ENCODING 9251
SWIDTH 660 0
DWIDTH 11 0
BBX 9 3 1 -3
BITMAP
C180
C180
FF80
ENDCHAR
STARTCHAR 25C6
ENCODING 9670
SWIDTH 780 0
DWIDTH 13 0
BBX 9 10 2 0
BITMAP
0800
1C00
3E00
7F00
FF80
FF80
7F00
3E00
1C00
0800
ENDCHAR
STARTCHAR 25CA
ENCODING 9674
SWIDTH 780 0
DWIDTH 13 0
BBX 9 10 2 0
BITMAP
0800
1C00
3600
6300
C380
C180
6300
3600
1C00
0800
ENDCHAR
STARTCHAR 2713
ENCODING 10003
SWIDTH 900 0
DWIDTH 15 0
BBX 13 11 1 0
BITMAP
0008
0018
0030
0060
00C0
0180
C300
E600
7C00
3800
1000
ENDCHAR
STARTCHAR F000
ENCODING 61440
SWIDTH 900 0
DWIDTH 15 0
BBX 11 14 2 0
BITMAP
0100
0300
0300
0200
7FE0
FFE0
FFC0
FFC0
FFC0
FFC0
FFE0
7FE0
7FE0
3FC0
ENDCHAR
STARTCHAR F001
ENCODING 61441
SWIDTH 840 0
DWIDTH 14 0
BBX 12 13 1 0
BITMAP
1E70
3800
3800
FFF0
3870
3870
3870
3870
3870
3870
3870
3870
3870
ENDCHAR
STARTCHAR F002
ENCODING 61442
SWIDTH 840 0
DWIDTH 14 0
BBX 12 13 1 0
BITMAP
1FF0
3870
3870
FC70
3870
3870
3870
3870
3870
3870
3870
3870
3870
ENDCHAR
STARTCHAR F8FF
ENCODING 63743
SWIDTH 900 0
DWIDTH 15 0
BBX 11 14 2 0
BITMAP
0100
0300
0300
0200
7FE0
FFE0
FFC0
FFC0
FFC0
FFC0
FFE0
7FE0
7FE0
3FC0
ENDCHAR
ENDFONT
